<svg width="1727" height="403" viewBox="0 0 1727 403" fill="none" xmlns="http://www.w3.org/2000/svg">
<rect x="0.5" y="0.5" width="1726" height="399" fill="#EAEAEA" stroke="#C4C4C4"/>
<path d="M14.5126 3.36133L478.916 110.924" stroke="#C4C4C4"/>
<path d="M1248.08 289.076L1712.49 396.639" stroke="#C4C4C4"/>
<path d="M1248.08 110.924L1712.49 3.36134" stroke="#C4C4C4"/>
<path d="M14.5126 396.639L478.916 289.076" stroke="#C4C4C4"/>
<path d="M816 183C816 176.925 821.187 172 827.585 172C833.984 172 839.171 176.925 839.171 183C839.171 189.075 833.984 194 827.585 194C821.187 194 816 189.075 816 183Z" fill="#959595"/>
<path d="M911 227H818.317V213.8L829.762 202.933C831.119 201.645 833.32 201.645 834.677 202.933L846.122 213.8L880.737 180.933C882.095 179.645 884.295 179.645 885.653 180.933L911 205V227Z" fill="#959595"/>
</svg>
