<svg width="24" height="24" viewBox="0 0 24 24" fill="none" xmlns="http://www.w3.org/2000/svg">
<path d="M12 22C17.5 22 22 17.5 22 12C22 6.5 17.5 2 12 2C6.5 2 2 6.5 2 12C2 17.5 6.5 22 12 22Z" stroke="#313131" stroke-width="1.5" stroke-linecap="round" stroke-linejoin="round"/>
<path d="M11.9608 14.3538C11.8276 14.3538 11.7229 14.312 11.6468 14.2284C11.5707 14.1448 11.5327 14.0241 11.5327 13.8663C11.5327 13.5506 11.5707 13.2535 11.6468 12.9749C11.7229 12.6964 11.8466 12.4178 12.0178 12.1393C12.1986 11.8514 12.4364 11.5404 12.7313 11.2061C12.9596 10.9461 13.1403 10.714 13.2735 10.5097C13.4162 10.3055 13.5161 10.1105 13.5731 9.92479C13.6397 9.72981 13.673 9.53018 13.673 9.32591C13.673 8.9545 13.5351 8.66202 13.2592 8.44847C12.9929 8.22563 12.6171 8.11421 12.132 8.11421C11.7039 8.11421 11.3092 8.1792 10.9477 8.30919C10.5957 8.4299 10.2533 8.60167 9.92033 8.82451C9.76813 8.92665 9.62545 8.97772 9.49227 8.97772C9.3591 8.97772 9.2497 8.94058 9.16409 8.8663C9.08799 8.79202 9.03567 8.69916 9.00713 8.58774C8.98811 8.47632 9.00713 8.36026 9.06421 8.23955C9.12128 8.10956 9.22117 7.9935 9.36385 7.89137C9.74435 7.61281 10.1867 7.39462 10.6908 7.23677C11.195 7.07892 11.6944 7 12.1891 7C12.7503 7 13.2402 7.09285 13.6587 7.27855C14.0773 7.46425 14.4055 7.72423 14.6433 8.0585C14.8811 8.38347 15 8.7688 15 9.21449C15 9.51161 14.9572 9.79016 14.8716 10.0501C14.786 10.3101 14.648 10.5747 14.4578 10.844C14.2675 11.1133 14.0107 11.4104 13.6873 11.7354C13.3924 12.0325 13.1498 12.3064 12.9596 12.5571C12.7788 12.7985 12.6457 13.0306 12.56 13.2535C12.4839 13.4763 12.4316 13.7177 12.4031 13.9777C12.3936 14.0891 12.3508 14.182 12.2747 14.2563C12.1986 14.3213 12.0939 14.3538 11.9608 14.3538ZM11.9465 17C11.6897 17 11.4804 16.9211 11.3187 16.7632C11.1665 16.6054 11.0904 16.4058 11.0904 16.1643C11.0904 15.9229 11.1665 15.7279 11.3187 15.5794C11.4804 15.4308 11.6897 15.3565 11.9465 15.3565C12.2033 15.3565 12.4078 15.4308 12.56 15.5794C12.7122 15.7279 12.7883 15.9229 12.7883 16.1643C12.7883 16.4058 12.7122 16.6054 12.56 16.7632C12.4078 16.9211 12.2033 17 11.9465 17Z" fill="#313131"/>
</svg>
