<svg width="1506" height="459" viewBox="0 0 1506 459" fill="none" xmlns="http://www.w3.org/2000/svg">
<path d="M362.739 224.075L305.379 190.974L258.199 236.578L301.319 278.256L362.739 242.802C366.119 240.854 368.139 237.35 368.139 233.444C368.139 229.535 366.119 226.033 362.739 224.075Z" fill="#FFD700"/>
<path d="M295.639 185.351L232.52 148.915L94.1895 78.025L250.429 229.06L295.639 185.351Z" fill="#00EE8C"/>
<path d="M96.4795 392.905L232.75 317.835L291.58 283.879L250.429 244.095L96.4795 392.905Z" fill="#FD5057"/>
<path d="M84.9495 84.136L84.8096 389.16L242.649 236.575L84.9495 84.136Z" fill="#00DCFC"/>
<path d="M1447.81 0.998047H58.6694C26.5294 0.998047 0.479492 27.052 0.479492 59.191V400.644C0.479492 432.786 26.5294 458.84 58.6694 458.84H1447.81C1479.95 458.84 1506 432.786 1506 400.644V59.191C1506 27.052 1479.95 0.998047 1447.81 0.998047ZM1447.81 10.998C1474.38 10.998 1496 32.617 1496 59.191V400.644C1496 427.219 1474.38 448.84 1447.81 448.84H58.6694C32.0994 448.84 10.4795 427.219 10.4795 400.644V59.191C10.4795 32.617 32.0994 10.998 58.6694 10.998H1447.81Z" fill="white"/>
<path d="M493.869 277.562H514.869V325.187C508.719 330.081 501.549 333.837 493.359 336.453C485.169 339.069 476.749 340.379 468.099 340.379C455.919 340.379 444.939 337.733 435.149 332.442C425.359 327.15 417.679 319.839 412.109 310.506C406.529 301.177 403.739 290.649 403.739 278.927C403.739 267.208 406.529 256.68 412.109 247.347C417.679 238.018 425.389 230.704 435.239 225.413C445.079 220.121 456.149 217.475 468.439 217.475C478.449 217.475 487.559 219.126 495.749 222.425C503.949 225.727 510.829 230.563 516.409 236.935L502.409 250.591C493.299 241.488 482.319 236.935 469.459 236.935C461.039 236.935 453.559 238.7 447.019 242.227C440.469 245.755 435.349 250.706 431.649 257.077C427.949 263.452 426.109 270.733 426.109 278.927C426.109 286.894 427.949 294.063 431.649 300.436C435.349 306.81 440.469 311.816 447.019 315.457C453.559 319.1 460.979 320.919 469.289 320.919C478.619 320.919 486.819 318.871 493.869 314.774V277.562Z" fill="white"/>
<path d="M602.44 313.75C607.56 308.517 610.12 301.63 610.12 293.095C610.12 284.56 607.56 277.676 602.44 272.44C597.32 267.208 590.83 264.588 582.98 264.588C575.13 264.588 568.67 267.208 563.6 272.44C558.54 277.676 556.01 284.56 556.01 293.095C556.01 301.63 558.54 308.517 563.6 313.75C568.67 318.986 575.13 321.602 582.98 321.602C590.83 321.602 597.32 318.986 602.44 313.75ZM558.05 333.893C550.66 329.911 544.88 324.363 540.73 317.249C536.57 310.139 534.5 302.086 534.5 293.095C534.5 284.107 536.57 276.084 540.73 269.026C544.88 261.972 550.66 256.453 558.05 252.468C565.45 248.486 573.76 246.494 582.98 246.494C592.31 246.494 600.67 248.486 608.07 252.468C615.47 256.453 621.24 261.972 625.4 269.026C629.55 276.084 631.63 284.107 631.63 293.095C631.63 302.086 629.55 310.139 625.4 317.249C621.24 324.363 615.47 329.911 608.07 333.893C600.67 337.877 592.31 339.867 582.98 339.867C573.76 339.867 565.45 337.877 558.05 333.893Z" fill="white"/>
<path d="M712.54 313.75C717.66 308.517 720.219 301.63 720.219 293.095C720.219 284.56 717.66 277.676 712.54 272.44C707.42 267.208 700.93 264.588 693.08 264.588C685.22 264.588 678.769 267.208 673.699 272.44C668.639 277.676 666.11 284.56 666.11 293.095C666.11 301.63 668.639 308.517 673.699 313.75C678.769 318.986 685.22 321.602 693.08 321.602C700.93 321.602 707.42 318.986 712.54 313.75ZM668.159 333.893C660.759 329.911 654.98 324.363 650.83 317.249C646.67 310.139 644.6 302.086 644.6 293.095C644.6 284.107 646.67 276.084 650.83 269.026C654.98 261.972 660.759 256.453 668.159 252.468C675.549 248.486 683.86 246.494 693.08 246.494C702.41 246.494 710.769 248.486 718.169 252.468C725.569 256.453 731.34 261.972 735.5 269.026C739.65 276.084 741.729 284.107 741.729 293.095C741.729 302.086 739.65 310.139 735.5 317.249C731.34 324.363 725.569 329.911 718.169 333.893C710.769 337.877 702.41 339.867 693.08 339.867C683.86 339.867 675.549 337.877 668.159 333.893Z" fill="white"/>
<path d="M823.919 309.227C829.089 304.391 831.679 298.104 831.679 290.364C831.679 282.741 829.089 276.537 823.919 271.758C818.739 266.978 812.109 264.588 804.029 264.588C795.839 264.588 789.149 266.978 783.969 271.758C778.789 276.537 776.209 282.741 776.209 290.364C776.209 298.104 778.789 304.391 783.969 309.227C789.149 314.065 795.839 316.481 804.029 316.481C812.109 316.481 818.739 314.065 823.919 309.227ZM852.679 247.518V324.846C852.679 356.937 836.289 372.983 803.519 372.983C794.749 372.983 786.449 371.874 778.599 369.654C770.739 367.435 764.259 364.219 759.139 360.01L768.699 343.964C772.679 347.263 777.709 349.909 783.799 351.902C789.889 353.891 796.059 354.889 802.319 354.889C812.339 354.889 819.679 352.611 824.339 348.061C829.009 343.508 831.339 336.568 831.339 327.235V322.456C827.699 326.44 823.259 329.455 818.029 331.502C812.789 333.551 807.039 334.576 800.789 334.576C792.139 334.576 784.309 332.727 777.319 329.028C770.319 325.331 764.799 320.125 760.759 313.409C756.719 306.695 754.699 299.014 754.699 290.364C754.699 281.717 756.719 274.062 760.759 267.405C764.799 260.748 770.319 255.6 777.319 251.957C784.309 248.316 792.139 246.494 800.789 246.494C807.389 246.494 813.389 247.577 818.799 249.737C824.199 251.9 828.719 255.2 832.369 259.638V247.518H852.679Z" fill="white"/>
<path d="M880.67 212.013H902.01V338.672H880.67V212.013Z" fill="white"/>
<path d="M952.279 269.624C947.549 273.665 944.679 279.042 943.659 285.755H995.379C994.469 279.156 991.679 273.806 987.019 269.709C982.349 265.613 976.539 263.564 969.599 263.564C962.779 263.564 956.999 265.586 952.279 269.624ZM1015.35 299.923H943.829C945.079 306.639 948.349 311.958 953.639 315.884C958.939 319.81 965.509 321.773 973.359 321.773C983.369 321.773 991.629 318.474 998.109 311.872L1009.55 325.016C1005.45 329.911 1000.27 333.61 994.009 336.112C987.749 338.616 980.699 339.867 972.849 339.867C962.829 339.867 954.009 337.877 946.389 333.893C938.759 329.911 932.879 324.363 928.719 317.249C924.569 310.139 922.489 302.086 922.489 293.095C922.489 284.219 924.509 276.225 928.549 269.112C932.589 262.001 938.199 256.453 945.369 252.468C952.529 248.486 960.609 246.494 969.599 246.494C978.479 246.494 986.419 248.457 993.419 252.383C1000.42 256.309 1005.88 261.831 1009.8 268.941C1013.73 276.055 1015.69 284.277 1015.69 293.607C1015.69 295.087 1015.58 297.192 1015.35 299.923Z" fill="white"/>
<path d="M1155.49 279.269C1160.5 275.171 1163 269.312 1163 261.686C1163 254.063 1160.5 248.201 1155.49 244.104C1150.49 240.007 1143.15 237.959 1133.47 237.959H1107.53V285.414H1133.47C1143.15 285.414 1150.49 283.365 1155.49 279.269ZM1161.55 224.303C1169.24 227.717 1175.13 232.611 1179.22 238.983C1183.32 245.358 1185.37 252.925 1185.37 261.686C1185.37 270.336 1183.32 277.876 1179.22 284.304C1175.13 290.735 1169.24 295.656 1161.55 299.07C1153.87 302.484 1144.85 304.191 1134.5 304.191H1107.53V338.672H1085.34V219.182H1134.5C1144.85 219.182 1153.87 220.889 1161.55 224.303Z" fill="white"/>
<path d="M1207.22 212.013H1228.55V338.672H1207.22V212.013Z" fill="white"/>
<path d="M1302.72 320.664C1306.87 318.218 1309.8 314.718 1311.51 310.165V299.582H1289.49C1277.2 299.582 1271.06 303.623 1271.06 311.702C1271.06 315.571 1272.59 318.645 1275.67 320.919C1278.74 323.197 1283 324.333 1288.47 324.333C1293.81 324.333 1298.57 323.112 1302.72 320.664ZM1322.18 256.139C1329.29 262.569 1332.85 272.27 1332.85 285.243V338.672H1312.71V327.577C1310.09 331.562 1306.36 334.605 1301.53 336.709C1296.69 338.813 1290.86 339.867 1284.03 339.867C1277.2 339.867 1271.23 338.699 1266.11 336.368C1260.98 334.037 1257.03 330.793 1254.24 326.638C1251.45 322.485 1250.06 317.791 1250.06 312.555C1250.06 304.361 1253.1 297.789 1259.19 292.839C1265.28 287.889 1274.87 285.414 1287.96 285.414H1311.51V284.048C1311.51 277.676 1309.61 272.782 1305.79 269.368C1301.98 265.954 1296.32 264.247 1288.81 264.247C1283.69 264.247 1278.65 265.044 1273.7 266.637C1268.75 268.232 1264.57 270.451 1261.16 273.294L1252.79 257.76C1257.57 254.12 1263.32 251.333 1270.03 249.396C1276.75 247.462 1283.86 246.494 1291.37 246.494C1304.8 246.494 1315.07 249.711 1322.18 256.139Z" fill="white"/>
<path d="M1443.8 247.518L1401.13 346.012C1397.14 355.913 1392.31 362.882 1386.62 366.923C1380.93 370.961 1374.04 372.983 1365.96 372.983C1361.41 372.983 1356.92 372.241 1352.48 370.764C1348.04 369.284 1344.4 367.235 1341.55 364.619L1350.09 348.915C1352.14 350.848 1354.55 352.384 1357.34 353.523C1360.13 354.66 1362.95 355.23 1365.79 355.23C1369.55 355.23 1372.65 354.262 1375.1 352.328C1377.54 350.392 1379.79 347.148 1381.84 342.598L1383.38 339.014L1343.6 247.518H1365.79L1394.47 314.945L1423.32 247.518H1443.8Z" fill="white"/>
<path d="M464.24 122.799H448.44V115.777H472.08V152.331H464.24V122.799ZM441.93 152.848C437.11 152.848 432.62 151.799 428.46 149.698C424.29 147.599 420.66 144.777 417.56 141.231C414.47 137.686 412.05 133.693 410.34 129.252C408.61 124.813 407.75 120.217 407.75 115.467C407.75 110.511 408.61 105.813 410.34 101.373C412.05 96.933 414.45 92.992 417.51 89.55C420.57 86.108 424.19 83.405 428.35 81.444C432.52 79.482 437.04 78.5 441.93 78.5C449.02 78.5 454.87 79.982 459.49 82.94C464.1 85.901 467.58 89.756 469.92 94.506L462.79 99.462C460.66 95.194 457.73 92.028 454.01 89.962C450.3 87.897 446.2 86.865 441.73 86.865C438.01 86.865 434.63 87.657 431.61 89.239C428.58 90.824 425.98 92.975 423.81 95.693C421.64 98.414 419.99 101.494 418.85 104.935C417.72 108.378 417.15 111.957 417.15 115.674C417.15 119.598 417.79 123.299 419.06 126.774C420.33 130.251 422.14 133.315 424.48 135.964C426.82 138.616 429.54 140.698 432.64 142.212C435.74 143.727 439.08 144.483 442.66 144.483C446.85 144.483 450.85 143.417 454.63 141.282C458.42 139.149 462 135.879 465.37 131.473V141.076C458.76 148.924 450.95 152.848 441.93 152.848Z" fill="white"/>
<path d="M536 144.07V152.331H486.229V79.0171H535.07V87.2781H495.52V111.027H529.909V118.772H495.52V144.07H536Z" fill="white"/>
<path d="M601.57 87.2781H576.27V152.331H566.98V87.2781H541.68V79.0171H601.57V87.2781Z" fill="white"/>
<path d="M635.129 79.0171H644.419V152.331H635.129V79.0171Z" fill="white"/>
<path d="M671.27 96.1581V152.331H661.979V79.0171H669.82L714.639 136.326V79.1201H723.929V152.331H715.459L671.27 96.1581Z" fill="white"/>
<path d="M772.249 115.674C772.249 119.392 772.859 122.989 774.059 126.465C775.269 129.942 776.969 133.021 779.169 135.706C781.379 138.391 784.029 140.526 787.119 142.108C790.219 143.693 793.659 144.483 797.449 144.483C801.369 144.483 804.879 143.658 807.979 142.005C811.079 140.353 813.709 138.151 815.879 135.396C818.049 132.645 819.699 129.546 820.839 126.104C821.969 122.662 822.539 119.185 822.539 115.674C822.539 111.957 821.939 108.378 820.729 104.935C819.529 101.494 817.809 98.414 815.569 95.693C813.329 92.975 810.679 90.84 807.619 89.292C804.559 87.743 801.169 86.968 797.449 86.968C793.529 86.968 790.009 87.778 786.919 89.395C783.819 91.013 781.189 93.199 779.019 95.951C776.849 98.706 775.179 101.786 774.009 105.193C772.839 108.601 772.249 112.095 772.249 115.674ZM797.349 152.848C792.179 152.848 787.499 151.815 783.299 149.75C779.099 147.685 775.469 144.88 772.409 141.334C769.339 137.789 766.989 133.796 765.339 129.356C763.679 124.916 762.859 120.356 762.859 115.674C762.859 110.787 763.739 106.123 765.489 101.683C767.249 97.242 769.689 93.285 772.819 89.808C775.949 86.333 779.619 83.578 783.819 81.547C788.019 79.517 792.599 78.5 797.549 78.5C802.719 78.5 807.399 79.568 811.599 81.702C815.789 83.836 819.409 86.694 822.439 90.272C825.469 93.853 827.809 97.846 829.459 102.25C831.109 106.656 831.939 111.166 831.939 115.777C831.939 120.666 831.079 125.329 829.359 129.769C827.639 134.209 825.209 138.168 822.079 141.644C818.939 145.121 815.279 147.857 811.079 149.853C806.879 151.85 802.299 152.848 797.349 152.848Z" fill="white"/>
<path d="M854.14 96.1581V152.331H844.84V79.0171H852.69L897.51 136.326V79.1201H906.8V152.331H898.33L854.14 96.1581Z" fill="white"/>
</svg>
