<svg width="84" height="84" viewBox="0 0 84 84" fill="none" xmlns="http://www.w3.org/2000/svg">
<circle cx="42" cy="42" r="40" fill="white" stroke="#FF3D3D" stroke-width="4"/>
<path d="M41.5378 54.2737C40.8824 54.2737 40.3277 54.0801 39.8739 53.6927C39.4706 53.257 39.2437 52.6034 39.1933 51.7318L37.5294 20.2849C37.4286 18.9777 37.7311 17.9367 38.437 17.162C39.1429 16.3873 40.1765 16 41.5378 16C42.8487 16 43.8571 16.3873 44.563 17.162C45.2689 17.9367 45.5714 18.9777 45.4706 20.2849L43.8067 51.7318C43.7563 52.6034 43.5294 53.257 43.1261 53.6927C42.7227 54.0801 42.1933 54.2737 41.5378 54.2737ZM41.5378 68C40.2269 68 39.1429 67.5885 38.2857 66.7654C37.4286 65.9423 37 64.9013 37 63.6425C37 62.3836 37.4286 61.3669 38.2857 60.5922C39.1429 59.8175 40.2269 59.4302 41.5378 59.4302C42.9496 59.4302 44.0336 59.8175 44.7899 60.5922C45.5966 61.3669 46 62.3836 46 63.6425C46 64.9013 45.5966 65.9423 44.7899 66.7654C44.0336 67.5885 42.9496 68 41.5378 68Z" fill="black"/>
</svg>
