<svg width="22" height="22" viewBox="0 0 22 22" fill="none" xmlns="http://www.w3.org/2000/svg">
    <path
        d="M13 8.3V11.2H15.6C15.8 11.2 15.9 11.4 15.9 11.6L15.5 13.5C15.5 13.6 15.3 13.7 15.2 13.7H13V21H10V13.8H8.3C8.1 13.8 8 13.7 8 13.5V11.6C8 11.4 8.1 11.3 8.3 11.3H10V8C10 6.3 11.3 5 13 5H15.7C15.9 5 16 5.1 16 5.3V7.7C16 7.9 15.9 8 15.7 8H13.3C13.1 8 13 8.1 13 8.3Z"
        stroke="#FFFFFF" stroke-width="1.5" stroke-miterlimit="10" stroke-linecap="round" />
    <path d="M14 21H8C3 21 1 19 1 14V8C1 3 3 1 8 1H14C19 1 21 3 21 8V14C21 19 19 21 14 21Z"
        stroke="#FFFFFF" stroke-width="1.5" stroke-linecap="round" stroke-linejoin="round" />
</svg>