<svg width="22" height="22" viewBox="0 0 22 22" fill="none" xmlns="http://www.w3.org/2000/svg">
    <path d="M8 21H14C19 21 21 19 21 14V8C21 3 19 1 14 1H8C3 1 1 3 1 8V14C1 19 3 21 8 21Z"
        stroke="#FFFFFF" stroke-width="1.5" stroke-linecap="round" stroke-linejoin="round" />
    <path
        d="M11 14.5C12.933 14.5 14.5 12.933 14.5 11C14.5 9.067 12.933 7.5 11 7.5C9.067 7.5 7.5 9.067 7.5 11C7.5 12.933 9.067 14.5 11 14.5Z"
        stroke="#FFFFFF" stroke-width="1.5" stroke-linecap="round" stroke-linejoin="round" />
    <path d="M16.6361 6H16.6477" stroke="#FFFFFF" stroke-width="2" stroke-linecap="round"
        stroke-linejoin="round" />
</svg>