<svg width="1506" height="458" viewBox="0 0 1506 458" fill="none" xmlns="http://www.w3.org/2000/svg">
<path d="M1447.8 0.160034H58.6694C26.5294 0.160034 0.479492 26.21 0.479492 58.35V399.81C0.479492 431.95 26.5294 458 58.6694 458H1447.8C1479.94 458 1506 431.95 1506 399.81V58.35C1506 26.21 1479.94 0.160034 1447.8 0.160034ZM1447.8 10.16C1474.38 10.16 1496 31.78 1496 58.35V399.81C1496 426.38 1474.38 448 1447.8 448H58.6694C32.0994 448 10.4795 426.38 10.4795 399.81V58.35C10.4795 31.78 32.0994 10.16 58.6694 10.16H1447.8Z" fill="white"/>
<path d="M159 187.23C134.57 229.61 150.1 293.93 177.11 332.92C190.59 352.42 204.24 369.93 222.93 369.93C223.28 369.93 223.64 369.92 224 369.9C232.78 369.55 239.13 366.85 245.26 364.24C252.15 361.3 259.28 358.26 270.46 358.26C281.09 358.26 287.88 361.2 294.44 364.04C300.91 366.84 307.57 369.74 317.41 369.55C338.47 369.16 351.4 350.27 362.8 333.61C374.71 316.22 380.68 299.33 382.69 292.87L382.77 292.62C383.16 291.47 382.61 290.22 381.51 289.71C381.51 289.71 381.37 289.65 381.34 289.64C377.63 288.12 345.1 273.69 344.76 234.36C344.45 202.41 369.17 185.49 374.12 182.42L374.35 182.27C374.89 181.93 375.27 181.38 375.39 180.76C375.52 180.13 375.39 179.48 375.03 178.95C357.96 153.98 331.81 150.22 321.28 149.77C319.76 149.61 318.18 149.54 316.6 149.54C304.23 149.54 292.38 154.21 282.87 157.96C276.3 160.55 270.62 162.79 266.71 162.79C262.31 162.79 256.6 160.52 250 157.9C241.16 154.4 231.14 150.42 220.54 150.42C220.29 150.42 220.04 150.42 219.79 150.43C195.14 150.79 171.84 164.9 159 187.23Z" fill="white"/>
<path d="M321.31 81.04C306.38 81.65 288.46 90.84 277.76 103.38C268.66 113.91 259.78 131.49 262.12 149.2C262.26 150.31 263.17 151.16 264.28 151.25C265.29 151.33 266.32 151.37 267.34 151.37C281.94 151.37 297.69 143.29 308.45 130.29C319.77 116.56 325.49 98.93 323.76 83.15C323.62 81.91 322.53 80.99 321.31 81.04Z" fill="white"/>
<path d="M521 157C527.6 157 533.43 155.68 538.47 153.06C543.51 150.44 547.4 146.77 550.13 142.07C552.85 137.37 554.21 131.99 554.21 125.92C554.21 119.86 552.85 114.48 550.13 109.77C547.4 105.07 543.51 101.41 538.47 98.79C533.43 96.16 527.6 94.85 521 94.85H498.3V157H521ZM493.09 90.15H521.4C528.83 90.15 535.42 91.68 541.18 94.75C546.94 97.82 551.42 102.06 554.62 107.47C557.82 112.89 559.43 119.04 559.43 125.92C559.43 132.81 557.82 138.96 554.62 144.37C551.42 149.79 546.94 154.03 541.18 157.1C535.42 160.16 528.83 161.7 521.4 161.7H493.09V90.15Z" fill="white"/>
<path d="M607.719 154.64C610.959 152.74 613.509 150.08 615.389 146.67C617.259 143.27 618.199 139.38 618.199 135.02C618.199 130.66 617.259 126.78 615.389 123.37C613.509 119.96 610.959 117.3 607.719 115.4C604.479 113.49 600.819 112.53 596.729 112.53C592.639 112.53 588.98 113.49 585.74 115.4C582.51 117.3 579.95 119.96 578.08 123.37C576.2 126.78 575.27 130.66 575.27 135.02C575.27 139.38 576.2 143.27 578.08 146.67C579.95 150.08 582.51 152.74 585.74 154.64C588.98 156.55 592.639 157.51 596.729 157.51C600.819 157.51 604.479 156.55 607.719 154.64ZM583.09 158.63C579.03 156.31 575.85 153.09 573.53 148.97C571.21 144.85 570.06 140.2 570.06 135.02C570.06 129.84 571.21 125.19 573.53 121.07C575.85 116.95 579.03 113.73 583.09 111.41C587.14 109.09 591.689 107.93 596.729 107.93C601.769 107.93 606.319 109.09 610.379 111.41C614.429 113.73 617.619 116.95 619.929 121.07C622.249 125.19 623.409 129.84 623.409 135.02C623.409 140.2 622.249 144.85 619.929 148.97C617.619 153.09 614.429 156.31 610.379 158.63C606.319 160.95 601.769 162.11 596.729 162.11C591.689 162.11 587.14 160.95 583.09 158.63Z" fill="white"/>
<path d="M713.969 108.34L693.729 161.7H688.919L670.939 115.4L652.839 161.7H648.139L627.909 108.34H632.809L650.599 155.97L668.789 108.34H673.179L691.279 155.87L709.259 108.34H713.969Z" fill="white"/>
<path d="M767.729 113.76C771.609 117.64 773.549 123.23 773.549 130.52V161.7H768.439V130.93C768.439 124.94 766.929 120.37 763.899 117.23C760.859 114.1 756.619 112.53 751.169 112.53C744.899 112.53 739.959 114.41 736.349 118.16C732.739 121.9 730.929 126.95 730.929 133.28V161.7H725.819V108.34H730.729V119.89C732.569 116.15 735.309 113.21 738.959 111.1C742.599 108.99 746.909 107.93 751.889 107.93C758.559 107.93 763.849 109.88 767.729 113.76Z" fill="white"/>
<path d="M794.609 85.86H799.719V161.7H794.609V85.86Z" fill="white"/>
<path d="M853.119 154.64C856.359 152.74 858.909 150.08 860.789 146.67C862.659 143.27 863.599 139.38 863.599 135.02C863.599 130.66 862.659 126.78 860.789 123.37C858.909 119.96 856.359 117.3 853.119 115.4C849.889 113.49 846.219 112.53 842.139 112.53C838.049 112.53 834.379 113.49 831.149 115.4C827.909 117.3 825.359 119.96 823.479 123.37C821.609 126.78 820.669 130.66 820.669 135.02C820.669 139.38 821.609 143.27 823.479 146.67C825.359 150.08 827.909 152.74 831.149 154.64C834.379 156.55 838.049 157.51 842.139 157.51C846.219 157.51 849.889 156.55 853.119 154.64ZM828.489 158.63C824.439 156.31 821.249 153.09 818.929 148.97C816.619 144.85 815.459 140.2 815.459 135.02C815.459 129.84 816.619 125.19 818.929 121.07C821.249 116.95 824.439 113.73 828.489 111.41C832.539 109.09 837.089 107.93 842.139 107.93C847.179 107.93 851.729 109.09 855.779 111.41C859.829 113.73 863.019 116.95 865.339 121.07C867.649 125.19 868.809 129.84 868.809 135.02C868.809 140.2 867.649 144.85 865.339 148.97C863.019 153.09 859.829 156.31 855.779 158.63C851.729 160.95 847.179 162.11 842.139 162.11C837.089 162.11 832.539 160.95 828.489 158.63Z" fill="white"/>
<path d="M910.87 154.85C913.97 152.8 916.3 149.84 917.87 145.96V135.94H899.679C894.429 135.94 890.63 136.89 888.28 138.8C885.93 140.71 884.76 143.33 884.76 146.67C884.76 150.15 886.049 152.89 888.639 154.9C891.229 156.91 894.88 157.91 899.58 157.91C904.01 157.91 907.77 156.89 910.87 154.85ZM917.669 112.99C921.209 116.37 922.979 121.32 922.979 127.87V161.7H918.08V152.19C916.37 155.33 913.89 157.76 910.62 159.5C907.35 161.24 903.43 162.11 898.86 162.11C892.93 162.11 888.25 160.71 884.81 157.91C881.37 155.12 879.649 151.44 879.649 146.88C879.649 142.45 881.229 138.85 884.399 136.09C887.569 133.33 892.63 131.95 899.58 131.95H917.87V127.66C917.87 122.69 916.53 118.91 913.84 116.32C911.14 113.73 907.21 112.43 902.03 112.43C898.49 112.43 895.1 113.04 891.86 114.27C888.62 115.5 885.879 117.13 883.629 119.18L881.08 115.5C883.74 113.11 886.939 111.26 890.689 109.93C894.429 108.6 898.349 107.93 902.439 107.93C909.049 107.93 914.129 109.62 917.669 112.99Z" fill="white"/>
<path d="M975.979 154.64C979.209 152.74 981.769 150.08 983.639 146.67C985.519 143.27 986.449 139.38 986.449 135.02C986.449 130.66 985.519 126.78 983.639 123.37C981.769 119.96 979.209 117.3 975.979 115.4C972.739 113.49 969.08 112.53 964.99 112.53C960.9 112.53 957.24 113.49 954 115.4C950.77 117.3 948.21 119.96 946.34 123.37C944.46 126.78 943.53 130.66 943.53 135.02C943.53 139.38 944.46 143.27 946.34 146.67C948.21 150.08 950.77 152.74 954 154.64C957.24 156.55 960.9 157.51 964.99 157.51C969.08 157.51 972.739 156.55 975.979 154.64ZM991.56 85.86V161.7H986.56V149.13C984.44 153.28 981.479 156.48 977.659 158.73C973.849 160.98 969.519 162.11 964.679 162.11C959.709 162.11 955.209 160.95 951.189 158.63C947.169 156.31 944.02 153.11 941.74 149.02C939.45 144.93 938.31 140.27 938.31 135.02C938.31 129.77 939.45 125.09 941.74 120.97C944.02 116.84 947.169 113.64 951.189 111.36C955.209 109.08 959.709 107.93 964.679 107.93C969.449 107.93 973.73 109.06 977.51 111.31C981.29 113.56 984.269 116.69 986.449 120.71V85.86H991.56Z" fill="white"/>
<path d="M1071.24 154.64C1074.47 152.74 1077.03 150.08 1078.9 146.67C1080.77 143.27 1081.71 139.38 1081.71 135.02C1081.71 130.66 1080.77 126.78 1078.9 123.37C1077.03 119.96 1074.47 117.3 1071.24 115.4C1068 113.49 1064.34 112.53 1060.25 112.53C1056.16 112.53 1052.5 113.49 1049.26 115.4C1046.02 117.3 1043.47 119.96 1041.59 123.37C1039.72 126.78 1038.78 130.66 1038.78 135.02C1038.78 139.38 1039.72 143.27 1041.59 146.67C1043.47 150.08 1046.02 152.74 1049.26 154.64C1052.5 156.55 1056.16 157.51 1060.25 157.51C1064.34 157.51 1068 156.55 1071.24 154.64ZM1046.6 158.63C1042.55 156.31 1039.36 153.09 1037.05 148.97C1034.73 144.85 1033.57 140.2 1033.57 135.02C1033.57 129.84 1034.73 125.19 1037.05 121.07C1039.36 116.95 1042.55 113.73 1046.6 111.41C1050.66 109.09 1055.2 107.93 1060.25 107.93C1065.29 107.93 1069.84 109.09 1073.89 111.41C1077.95 113.73 1081.13 116.95 1083.45 121.07C1085.77 125.19 1086.92 129.84 1086.92 135.02C1086.92 140.2 1085.77 144.85 1083.45 148.97C1081.13 153.09 1077.95 156.31 1073.89 158.63C1069.84 160.95 1065.29 162.11 1060.25 162.11C1055.2 162.11 1050.66 160.95 1046.6 158.63Z" fill="white"/>
<path d="M1144.67 113.76C1148.56 117.64 1150.5 123.23 1150.5 130.52V161.7H1145.39V130.93C1145.39 124.94 1143.87 120.37 1140.84 117.23C1137.81 114.1 1133.57 112.53 1128.12 112.53C1121.84 112.53 1116.91 114.41 1113.29 118.16C1109.68 121.9 1107.88 126.95 1107.88 133.28V161.7H1102.77V108.34H1107.67V119.89C1109.51 116.15 1112.25 113.21 1115.9 111.1C1119.55 108.99 1123.86 107.93 1128.83 107.93C1135.51 107.93 1140.79 109.88 1144.67 113.76Z" fill="white"/>
<path d="M1224.29 158.32C1223 159.55 1221.38 160.49 1219.44 161.13C1217.5 161.78 1215.47 162.11 1213.36 162.11C1208.72 162.11 1205.14 160.83 1202.62 158.27C1200.1 155.72 1198.84 152.16 1198.84 147.59V112.74H1189.03V108.34H1198.84V96.6899H1203.95V108.34H1220.92V112.74H1203.95V147.08C1203.95 150.56 1204.79 153.2 1206.46 155C1208.13 156.81 1210.6 157.71 1213.87 157.71C1217.21 157.71 1219.96 156.72 1222.15 154.75L1224.29 158.32Z" fill="white"/>
<path d="M1280.41 113.76C1284.29 117.64 1286.23 123.23 1286.23 130.52V161.7H1281.12V130.93C1281.12 124.94 1279.6 120.37 1276.57 117.23C1273.54 114.1 1269.3 112.53 1263.85 112.53C1257.58 112.53 1252.64 114.41 1249.03 118.16C1245.41 121.9 1243.61 126.95 1243.61 133.28V161.7H1238.5V85.86H1243.61V119.48C1245.45 115.8 1248.17 112.96 1251.79 110.95C1255.4 108.94 1259.66 107.93 1264.56 107.93C1271.24 107.93 1276.52 109.88 1280.41 113.76Z" fill="white"/>
<path d="M1316.99 114.93C1314 116.61 1311.59 118.96 1309.79 121.99C1307.98 125.02 1306.94 128.44 1306.67 132.26H1347.55C1347.35 128.44 1346.33 125.04 1344.49 122.04C1342.65 119.04 1340.23 116.69 1337.23 114.99C1334.23 113.28 1330.86 112.43 1327.11 112.43C1323.37 112.43 1319.99 113.27 1316.99 114.93ZM1352.46 136.25H1306.57C1306.71 140.4 1307.76 144.1 1309.74 147.34C1311.71 150.57 1314.39 153.08 1317.76 154.85C1321.13 156.62 1324.93 157.51 1329.16 157.51C1332.63 157.51 1335.85 156.88 1338.82 155.61C1341.78 154.36 1344.25 152.5 1346.23 150.04L1349.19 153.42C1346.87 156.21 1343.96 158.36 1340.45 159.86C1336.94 161.36 1333.14 162.11 1329.05 162.11C1323.74 162.11 1319 160.95 1314.85 158.63C1310.69 156.31 1307.44 153.11 1305.09 149.02C1302.74 144.93 1301.56 140.27 1301.56 135.02C1301.56 129.84 1302.67 125.19 1304.88 121.07C1307.1 116.95 1310.15 113.73 1314.03 111.41C1317.91 109.09 1322.27 107.93 1327.11 107.93C1331.95 107.93 1336.29 109.08 1340.14 111.36C1343.99 113.64 1347.03 116.83 1349.24 120.91C1351.46 125 1352.56 129.64 1352.56 134.82L1352.46 136.25Z" fill="white"/>
<path d="M561.25 302.05L538.2 248.6L515.32 302.05H561.25ZM568.76 319.86H507.63L495.58 348.16H472.17L527.19 225.89H549.55L604.74 348.16H580.99L568.76 319.86Z" fill="white"/>
<path d="M687.27 322.66C692.45 317.3 695.05 310.26 695.05 301.53C695.05 292.79 692.45 285.75 687.27 280.39C682.09 275.04 675.479 272.35 667.449 272.35C662.209 272.35 657.49 273.55 653.3 275.94C649.11 278.32 645.79 281.73 643.34 286.15C640.9 290.58 639.679 295.7 639.679 301.53C639.679 307.35 640.9 312.47 643.34 316.9C645.79 321.32 649.11 324.73 653.3 327.11C657.49 329.5 662.209 330.69 667.449 330.69C675.479 330.69 682.09 328.02 687.27 322.66ZM694.26 259.78C701.42 263.74 707.04 269.33 711.12 276.55C715.19 283.77 717.229 292.09 717.229 301.53C717.229 310.96 715.19 319.31 711.12 326.59C707.04 333.87 701.42 339.49 694.26 343.44C687.1 347.4 678.979 349.38 669.889 349.38C657.319 349.38 647.36 345.19 640.03 336.81V382.05H618.189V254.89H638.979V267.12C642.589 262.69 647.04 259.37 652.34 257.16C657.64 254.95 663.489 253.84 669.889 253.84C678.979 253.84 687.1 255.82 694.26 259.78Z" fill="white"/>
<path d="M807.09 322.66C812.27 317.3 814.87 310.26 814.87 301.53C814.87 292.79 812.27 285.75 807.09 280.39C801.91 275.04 795.3 272.35 787.27 272.35C782.03 272.35 777.31 273.55 773.12 275.94C768.93 278.32 765.61 281.73 763.17 286.15C760.72 290.58 759.5 295.7 759.5 301.53C759.5 307.35 760.72 312.47 763.17 316.9C765.61 321.32 768.93 324.73 773.12 327.11C777.31 329.5 782.03 330.69 787.27 330.69C795.3 330.69 801.91 328.02 807.09 322.66ZM814.08 259.78C821.24 263.74 826.86 269.33 830.94 276.55C835.01 283.77 837.05 292.09 837.05 301.53C837.05 310.96 835.01 319.31 830.94 326.59C826.86 333.87 821.24 339.49 814.08 343.44C806.92 347.4 798.8 349.38 789.71 349.38C777.14 349.38 767.18 345.19 759.85 336.81V382.05H738.01V254.89H758.8V267.12C762.41 262.69 766.86 259.37 772.16 257.16C777.46 254.95 783.31 253.84 789.71 253.84C798.8 253.84 806.92 255.82 814.08 259.78Z" fill="white"/>
<path d="M918.7 345.89C909.91 343.21 902.95 339.66 897.83 335.24L905.69 317.59C910.69 321.55 916.84 324.79 924.12 327.29C931.39 329.79 938.7 331.04 946.04 331.04C955.12 331.04 961.9 329.59 966.39 326.68C970.87 323.77 973.11 319.92 973.11 315.15C973.11 311.66 971.86 308.77 969.36 306.5C966.85 304.23 963.68 302.46 959.84 301.17C955.99 299.9 950.75 298.44 944.12 296.81C934.8 294.6 927.26 292.38 921.5 290.17C915.73 287.96 910.78 284.5 906.65 279.78C902.51 275.06 900.45 268.69 900.45 260.65C900.45 253.9 902.28 247.76 905.95 242.23C909.62 236.7 915.15 232.3 922.54 229.04C929.94 225.78 938.99 224.15 949.71 224.15C957.16 224.15 964.49 225.08 971.71 226.94C978.93 228.81 985.16 231.48 990.4 234.98L983.24 252.62C977.88 249.47 972.29 247.09 966.47 245.46C960.65 243.83 955 243.01 949.53 243.01C940.56 243.01 933.9 244.53 929.53 247.55C925.16 250.58 922.98 254.6 922.98 259.6C922.98 263.1 924.23 265.95 926.74 268.16C929.24 270.38 932.41 272.12 936.26 273.4C940.1 274.69 945.34 276.14 951.98 277.77C961.06 279.87 968.51 282.05 974.33 284.32C980.16 286.59 985.13 290.06 989.27 294.71C993.4 299.37 995.47 305.66 995.47 313.58C995.47 320.33 993.63 326.45 989.97 331.92C986.3 337.39 980.74 341.76 973.29 345.02C965.83 348.28 956.75 349.91 946.04 349.91C936.61 349.91 927.49 348.57 918.7 345.89Z" fill="white"/>
<path d="M1071.97 343.1C1069.41 345.19 1066.29 346.76 1062.63 347.81C1058.96 348.86 1055.09 349.38 1051.01 349.38C1040.76 349.38 1032.85 346.71 1027.26 341.35C1021.67 335.99 1018.87 328.19 1018.87 317.94V273.05H1003.5V255.59H1018.87V234.28H1040.71V255.59H1065.68V273.05H1040.71V317.42C1040.71 321.96 1041.81 325.43 1044.03 327.81C1046.24 330.2 1049.44 331.39 1053.63 331.39C1058.52 331.39 1062.6 330.11 1065.86 327.55L1071.97 343.1Z" fill="white"/>
<path d="M1148.65 322.66C1153.89 317.3 1156.51 310.26 1156.51 301.53C1156.51 292.79 1153.89 285.75 1148.65 280.39C1143.41 275.04 1136.77 272.35 1128.74 272.35C1120.71 272.35 1114.09 275.04 1108.92 280.39C1103.73 285.75 1101.14 292.79 1101.14 301.53C1101.14 310.26 1103.73 317.3 1108.92 322.66C1114.09 328.02 1120.71 330.69 1128.74 330.69C1136.77 330.69 1143.41 328.02 1148.65 322.66ZM1103.24 343.27C1095.67 339.2 1089.76 333.52 1085.51 326.24C1081.26 318.96 1079.13 310.72 1079.13 301.53C1079.13 292.33 1081.26 284.12 1085.51 276.9C1089.76 269.68 1095.67 264.03 1103.24 259.95C1110.81 255.88 1119.31 253.84 1128.74 253.84C1138.29 253.84 1146.85 255.88 1154.42 259.95C1161.98 264.03 1167.89 269.68 1172.14 276.9C1176.39 284.12 1178.52 292.33 1178.52 301.53C1178.52 310.72 1176.39 318.96 1172.14 326.24C1167.89 333.52 1161.98 339.2 1154.42 343.27C1146.85 347.35 1138.29 349.38 1128.74 349.38C1119.31 349.38 1110.81 347.35 1103.24 343.27Z" fill="white"/>
<path d="M1253.45 253.84V274.63C1251.59 274.28 1249.9 274.1 1248.39 274.1C1239.88 274.1 1233.25 276.58 1228.47 281.53C1223.7 286.48 1221.31 293.61 1221.31 302.92V348.16H1199.48V254.89H1220.26V268.51C1226.55 258.73 1237.61 253.84 1253.45 253.84Z" fill="white"/>
<path d="M1293.89 277.51C1289.05 281.64 1286.11 287.14 1285.07 294.01H1337.99C1337.06 287.26 1334.21 281.79 1329.43 277.59C1324.66 273.4 1318.72 271.31 1311.62 271.31C1304.63 271.31 1298.72 273.38 1293.89 277.51ZM1358.43 308.51H1285.24C1286.52 315.38 1289.87 320.83 1295.28 324.84C1300.7 328.86 1307.42 330.87 1315.46 330.87C1325.7 330.87 1334.15 327.49 1340.79 320.74L1352.49 334.19C1348.3 339.2 1343 342.98 1336.59 345.54C1330.19 348.1 1322.97 349.38 1314.93 349.38C1304.69 349.38 1295.66 347.35 1287.86 343.27C1280.06 339.2 1274.03 333.52 1269.78 326.24C1265.53 318.96 1263.41 310.72 1263.41 301.53C1263.41 292.44 1265.47 284.26 1269.61 276.98C1273.74 269.71 1279.48 264.03 1286.81 259.95C1294.15 255.88 1302.42 253.84 1311.62 253.84C1320.7 253.84 1328.82 255.85 1335.98 259.87C1343.14 263.88 1348.73 269.53 1352.75 276.81C1356.77 284.09 1358.78 292.5 1358.78 302.05C1358.78 303.56 1358.66 305.72 1358.43 308.51Z" fill="white"/>
</svg>
