<svg id="Component_8_1" data-name="Component 8 – 1" xmlns="http://www.w3.org/2000/svg"
    width="142.235" height="145.272" viewBox="0 0 142.235 145.272">
    <defs>
        <linearGradient id="linear-gradient" y1="0.5" x2="1" y2="0.5"
            gradientUnits="objectBoundingBox">
            <stop offset="0" stop-color="#2274d3"></stop>
            <stop offset="1" stop-color="#003f88"></stop>
        </linearGradient>
        <linearGradient id="linear-gradient-2" x1="0.5" x2="0.5" y2="1"
            gradientUnits="objectBoundingBox">
            <stop offset="0" stop-color="#fdb794"></stop>
            <stop offset="1" stop-color="#ffdee8"></stop>
        </linearGradient>
        <linearGradient id="linear-gradient-3" x1="-0.961" y1="-0.148" x2="1" y2="1.19"></linearGradient>
    </defs>
    <path id="Path_21001" data-name="Path 21001"
        d="M1590,1481.883c-37.414,0-67.745-2.182-67.745-4.871s30.331-4.871,67.745-4.871,67.747,2.18,67.747,4.871-30.331,4.871-67.747,4.871"
        transform="translate(-1522.204 -1336.61)" fill="#edf2fc"></path>
    <path id="Path_21002" data-name="Path 21002"
        d="M2221.86,637.707a30.375,30.375,0,0,0,26.069,5.888c15.248-3.766,20.087-17.887,20.087-17.887s-10.045-7.679-26.035-5.5-20.121,17.5-20.121,17.5"
        transform="translate(-2137.35 -587.19)" fill="#ea9573"></path>
    <path id="Path_21003" data-name="Path 21003"
        d="M2238.6,624.1l.982-.273-4.848,13.5,15.218-3.956,3.588-9.878.812.107-3.5,9.537,16.911-4.4.248.172-.179.6-9.885,2.57,5.651,4.5-.478.6-6.1-4.86-14.193,3.689,8.8,9.632-.878.333-8.763-9.747-19.7,5.12-.437-.414.059-.279,11.923-3.1L2238.6,624.1"
        transform="translate(-2137.35 -590.419)" fill="#5e4a86"></path>
    <path id="Path_21004" data-name="Path 21004"
        d="M2216.9,527.538a30.375,30.375,0,0,0,25.6-7.677c11.432-10.77,8.711-25.447,8.711-25.447s-12.521-1.755-25.38,8-8.93,25.127-8.93,25.127"
        transform="translate(-2132.496 -476.818)" fill="#f2c46c"></path>
    <path id="Path_21005" data-name="Path 21005"
        d="M2226.712,505.176l.719-.72,2.406,14.137,11.313-10.921-1.727-10.367.758-.305,1.638,10.025,12.571-12.136.3.029.14.611-7.348,7.094,7.133,1.145-.121.756-7.7-1.236-10.551,10.185,12.4,4.065-.6.721-12.421-4.185L2220.98,528.21l-.584-.146-.086-.272,8.863-8.556-2.46-14.06"
        transform="translate(-2135.987 -477.344)" fill="#5e4a86"></path>
    <path id="Path_21006" data-name="Path 21006"
        d="M2166.265,434.09A30.374,30.374,0,0,0,2184.34,414.4c4.318-15.1-5.526-26.322-5.526-26.322s-11.657,4.894-17.723,19.849,5.174,26.16,5.174,26.16"
        transform="translate(-2082.339 -383.43)" fill="#f7e590"></path>
    <path id="Path_21007" data-name="Path 21007"
        d="M2165.04,411.11l.251-.987,9.3,10.919,4.138-15.17-6.785-8.026.5-.651,6.534,7.779,4.6-16.856.272-.129.433.453-2.687,9.854,6.716-2.664.281.712-7.25,2.876-3.858,14.147,12.735-2.847-.148.927-12.814,2.754-5.354,19.632-.576.174-.214-.19,3.242-11.885-9.3-10.824"
        transform="translate(-2087.39 -383.349)" fill="#5e4a86"></path>
    <path id="Subtraction_4" data-name="Subtraction 4"
        d="M45.164,121.163h0c-.028-.026-2.889-2.647-7.056-6.989A223.962,223.962,0,0,1,22.582,96.192,142.726,142.726,0,0,1,7.057,71.7C2.374,62.016,0,53.09,0,45.165A44.954,44.954,0,0,1,7.713,19.913,45.3,45.3,0,0,1,27.584,3.549,45.1,45.1,0,0,1,70.416,7.714,45.3,45.3,0,0,1,86.78,27.585a44.886,44.886,0,0,1,3.549,17.58,54.506,54.506,0,0,1-1.941,13.988A79.507,79.507,0,0,1,83.272,72.8,131.5,131.5,0,0,1,67.746,97.169,195.214,195.214,0,0,1,52.221,114.54c-4.176,4.149-7.028,6.6-7.057,6.622Zm0-97.277a20.132,20.132,0,1,0,7.861,1.587A20.066,20.066,0,0,0,45.164,23.886Z"
        transform="translate(14.609 19.106)" fill="url(#linear-gradient)"></path>
    <path id="Path_21055" data-name="Path 21055"
        d="M2445.256,1124.807a13.418,13.418,0,0,1-.4-1.978h-2.727v2.021l3.126-.044"
        transform="translate(-2331.027 -1029.473)" fill="url(#linear-gradient-2)"></path>
    <path id="Path_21056" data-name="Path 21056"
        d="M2353.448,1023.23a4.971,4.971,0,0,0-1.718,3.335s2.224.5,1.718-3.335"
        transform="translate(-2251.541 -941.898)" fill="#ff0a54"></path>
    <path id="Path_21057" data-name="Path 21057"
        d="M2388.6,1266.79a13.878,13.878,0,0,1,0,4.259c-.326,2.133-2.433,4.621-1.923,7.817,1.061,6.644,5.135,14.5,5.135,14.5h-2.729s-5.886-6.739-7.68-11.565.506-7.737.506-7.737-1.854,1.416-1.981,6.241,1.475,13.06,1.475,13.06h-2.426l-3.113-8s-2.036-4.971-1.232-9.616,4.447-8.963,4.447-8.963h9.52"
        transform="translate(-2271.511 -1156.053)" fill="#003f88"></path>
    <path id="Path_21058" data-name="Path 21058"
        d="M2394.468,1146.1c-2.551,0-7.932,2.779-10.205,0-1.094-1.337.144-3.919.669-6.312a20.551,20.551,0,0,0,.443-4.8,4.081,4.081,0,0,1-2.126-.3,9.006,9.006,0,0,1-2.219-1.62l2.727-3.536,6.958.963a3.9,3.9,0,0,1,3.358,3.729"
        transform="translate(-2277.303 -1035.364)" fill="#ff0a54"></path>
    <path id="Path_21059" data-name="Path 21059"
        d="M2434.839,1081.06s-1.919.076-1.919-1.314.708-3.536,1.919-4.244,3.235-.809,3.235.4,1.009,3.234,0,3.739-1.315,1.516-3.235,1.415"
        transform="translate(-2322.929 -987.4)" fill="url(#linear-gradient-3)"></path>
    <path id="Path_21060" data-name="Path 21060"
        d="M2447.847,1054.892a5.02,5.02,0,0,1-.842-1.818,3.979,3.979,0,0,1-.074-.442,3.648,3.648,0,0,1-.022-.4,3.094,3.094,0,0,1,.332-1.384,2.441,2.441,0,0,0,1.718,1.314c1.314.3,2.816.593,3.335,2.021.808,2.223.856,4.757-3.538,5.356,0,0,1.82-1.617,1.415-2.729s-1.617-1.314-2.324-1.92"
        transform="translate(-2335.229 -966.183)" fill="#002045"></path>
    <path id="Path_21061" data-name="Path 21061"
        d="M2363.25,1030l-9.8-6.771s-.5,2.728-1.718,3.335l11.52,3.436"
        transform="translate(-2251.541 -941.898)" fill="#4b44ff"></path>
    <path id="Path_21062" data-name="Path 21062"
        d="M2361.644,1051.558l.786-9.53h0l.007-.045,0-.063,0,0c.276-1.592.938-1.951,1.234-1.951a1.185,1.185,0,0,1,.91,1.01c.094.568-.567,1.549-.652,1.671a44.162,44.162,0,0,1,.349,4.476,10.02,10.02,0,0,0,.3,2.784l2.122.871-2.425,3.132-1.353-.45a1.888,1.888,0,0,1-1.287-1.906"
        transform="translate(-2260.255 -956.617)" fill="url(#linear-gradient-3)"></path>
    <path id="Path_21063" data-name="Path 21063"
        d="M2405.541,1067.594l.453,4.834v2.669l-2.374-.328.373-7.519,1.548.344"
        transform="translate(-2297.166 -980.603)" fill="url(#linear-gradient-3)"></path>
    <path id="Path_21064" data-name="Path 21064"
        d="M2477.477,1486.92h-2.729l-2.7,1.627c-.342.205-.152.626.28.626h4.693a.413.413,0,0,0,.455-.35v-1.9"
        transform="translate(-2357.179 -1349.654)" fill="#181819"></path>
    <path id="Path_21065" data-name="Path 21065"
        d="M2391.358,1486.92h-2.425l-2.972,1.617c-.363.2-.181.636.263.636h4.68a.413.413,0,0,0,.455-.35v-1.9"
        transform="translate(-2281.468 -1349.654)" fill="#181819"></path>
    <path id="Path_21070" data-name="Path 21070"
        d="M1811.763,1430.164s1.944-9.3,3.029-11.164c0,0-3.266,5.893-3.752,11.164h.723"
        transform="translate(-1776.128 -1289.886)" fill="#009360"></path>
    <path id="Path_21072" data-name="Path 21072"
        d="M1746.988,1431.274s-1.942-9.3-3.028-11.164c0,0,3.266,5.893,3.752,11.164h-.724"
        transform="translate(-1712.318 -1290.862)" fill="#009360"></path>
    <path id="Path_21074" data-name="Path 21074"
        d="M1677.484,1407.771s-2.505-11.992-3.9-14.391c0,0,4.21,7.6,4.836,14.391h-.932"
        transform="translate(-1641.984 -1267.359)" fill="#009360"></path>
    <path id="Path_21076" data-name="Path 21076"
        d="M1887.8,1407.771s2.505-11.992,3.9-14.391c0,0-4.21,7.6-4.836,14.391h.932"
        transform="translate(-1851.134 -1267.359)" fill="#009360"></path>
    <path id="Path_21077" data-name="Path 21077"
        d="M2164.365,353.212a3.181,3.181,0,1,1-2.677-3.616,3.181,3.181,0,0,1,2.677,3.616"
        transform="translate(-2081.232 -349.56)" fill="#e58c93"></path>
    <path id="Path_21078" data-name="Path 21078"
        d="M2171.161,370.264a.353.353,0,0,1-.09-.082l-1.059-1.386a.338.338,0,0,1,.538-.41l.824,1.079,1.716-1.713a.338.338,0,1,1,.477.478l-1.989,1.986a.335.335,0,0,1-.261.1.343.343,0,0,1-.156-.049"
        transform="translate(-2091.7 -365.469)" fill="#fffffe"></path>
    <path id="Path_21079" data-name="Path 21079"
        d="M1413.432,631.314a1.583,1.583,0,1,1-1.332-1.8,1.584,1.584,0,0,1,1.332,1.8"
        transform="translate(-1409.847 -595.292)" fill="#e58c93"></path>
    <path id="Path_21080" data-name="Path 21080"
        d="M1416.809,639.8a.191.191,0,0,1-.046-.041l-.526-.69a.168.168,0,1,1,.267-.2l.411.537.854-.852a.168.168,0,0,1,.238.238l-.99.988a.165.165,0,0,1-.129.049.167.167,0,0,1-.077-.025"
        transform="translate(-1415.196 -603.374)" fill="#fffffe"></path>
    <path id="Path_21081" data-name="Path 21081"
        d="M2676.922,1293.331a1.583,1.583,0,1,1-1.331-1.8,1.583,1.583,0,0,1,1.331,1.8"
        transform="translate(-2534.705 -1177.792)" fill="#e58c93"></path>
    <path id="Path_21082" data-name="Path 21082"
        d="M2680.309,1301.813a.161.161,0,0,1-.046-.041l-.526-.689a.168.168,0,0,1,.267-.2l.411.537.854-.852a.168.168,0,0,1,.238.238l-.99.988a.166.166,0,0,1-.129.05.17.17,0,0,1-.077-.026"
        transform="translate(-2539.917 -1185.706)" fill="#fffffe"></path>
    <path id="Path_21083" data-name="Path 21083"
        d="M1541.562,1032.493a.652.652,0,0,1-.652-.652v-4.6a.652.652,0,1,1,1.3,0v4.6a.652.652,0,0,1-.652.652"
        transform="translate(-1538.611 -944.852)" fill="#e58c93"></path>
    <path id="Path_21084" data-name="Path 21084"
        d="M1527.121,1046.934h-4.6a.652.652,0,1,1,0-1.3h4.6a.652.652,0,0,1,0,1.3"
        transform="translate(-1521.87 -961.593)" fill="#e58c93"></path>
    <path id="Path_21085" data-name="Path 21085"
        d="M2524.449,936.594a.319.319,0,0,1-.319-.32v-2.256a.319.319,0,1,1,.639,0v2.256a.32.32,0,0,1-.32.32"
        transform="translate(-2403.127 -863.176)" fill="#e58c93"></path>
    <path id="Path_21086" data-name="Path 21086"
        d="M2517.365,943.678h-2.257a.32.32,0,0,1,0-.64h2.257a.32.32,0,1,1,0,.64"
        transform="translate(-2394.915 -871.387)" fill="#e58c93"></path>
    <path id="Path_21087" data-name="Path 21087"
        d="M1486.66,243.057a.32.32,0,0,1-.32-.32v-2.255a.32.32,0,0,1,.64,0v2.255a.32.32,0,0,1-.32.32"
        transform="translate(-1473.499 -231.035)" fill="#e58c93"></path>
    <path id="Path_21088" data-name="Path 21088"
        d="M1479.575,250.14h-2.255a.32.32,0,1,1,0-.639h2.255a.32.32,0,1,1,0,.639"
        transform="translate(-1465.287 -239.246)" fill="#e58c93"></path>
</svg>