<svg width="269" height="255" viewBox="0 0 269 255" fill="none" xmlns="http://www.w3.org/2000/svg">
<path d="M124.068 0.0181746C75.9748 -0.715348 39.8125 20.9541 32.465 28.9006C30.1271 32.1098 22.8722 40.8204 27.0301 55.4908C31.7712 72.2192 37.3608 72.912 22.9828 88.9578C6.85412 106.957 -15.127 141.68 14.9311 185.233C44.9892 228.786 118.832 232.096 157.783 229.244C195.355 226.493 241.614 208.521 259.479 186.15C278.516 162.31 264.969 124.687 253.392 106.837C241.795 88.9578 267.996 52.7401 244.45 33.0267C220.905 13.3133 184.184 0.935078 124.068 0.0181746Z" fill="#F9F9F9"/>
<path d="M131.282 141.715C132.596 141.574 133.753 141.454 134.895 141.32C138.106 140.939 141.316 140.917 144.534 141.14C149.065 141.462 153.545 142.171 157.972 143.179C158.099 143.209 158.233 143.231 158.36 143.261C158.681 143.35 158.831 143.223 158.92 142.902C159.159 142.066 159.443 141.245 159.712 140.416C161.959 133.533 166.52 128.792 173.06 125.813C177.301 123.88 181.721 123.245 186.327 123.559C187.193 123.618 188.044 123.738 188.94 123.917C189.045 122.834 189.172 121.789 189.239 120.744C189.53 116.257 190.784 112.039 192.71 108C193.173 107.022 193.606 106.036 193.98 105.014C195.219 101.587 195.137 98.1749 193.8 94.8153C192.994 92.7921 191.583 91.1795 190.023 89.7013C187.477 87.2973 184.341 86.0206 181.071 85.0128C178.361 84.1766 175.569 83.7809 172.769 83.4449C170.126 83.1314 167.484 82.8029 164.833 82.5565C162.758 82.3624 160.675 82.2355 158.599 82.1758C153.851 82.0339 149.103 82.0339 144.355 82.1832C141.107 82.2803 137.867 82.5117 134.731 83.43C132.342 84.1318 130.028 85.0352 128.154 86.7523C124.787 89.8207 123.122 93.6357 123.219 98.2123C123.294 101.736 124.197 105.088 125.272 108.411C125.981 110.62 126.832 112.778 127.325 115.055C127.669 116.653 127.982 118.258 128.064 119.893C128.079 120.154 128.079 120.423 128.057 120.684C128.027 121.043 127.833 121.274 127.459 121.311C127.094 121.349 126.817 121.147 126.75 120.729C126.653 120.102 126.631 119.467 126.534 118.84C126.116 116.093 125.384 113.428 124.458 110.814C123.383 107.776 122.457 104.7 121.95 101.512C121.226 96.9804 121.778 92.6801 124.369 88.7681C125.996 86.3043 128.139 84.4752 130.827 83.2359C133.843 81.8473 137.016 81.1604 140.301 80.8991C146.647 80.3914 153.007 80.4885 159.361 80.6826C165.274 80.8618 171.134 81.6233 176.98 82.4893C180.362 82.9895 183.602 84.0347 186.671 85.5354C189.776 87.0584 192.27 89.3056 194.151 92.1874C195.973 94.9796 196.585 98.1003 196.346 101.408C196.197 103.573 195.51 105.581 194.629 107.544C194.121 108.672 193.636 109.814 193.136 110.949C191.665 114.249 191.053 117.735 190.747 121.304C190.672 122.17 190.635 123.043 190.553 123.909C190.515 124.313 190.65 124.529 191.038 124.678C191.874 124.999 192.643 125.47 193.397 125.955C196.01 127.635 198.228 131.719 196.511 136.026C195.883 137.609 194.973 139.028 193.823 140.289C193.569 140.573 193.42 140.879 193.3 141.238C192.277 144.313 191.225 147.382 190.194 150.45C188.701 154.9 187.119 159.32 185.924 163.859C185.237 166.487 184.647 169.137 184.132 171.802C183.602 174.565 183.729 177.297 184.296 180.045C184.886 182.912 185.349 185.801 185.506 188.735C185.543 189.496 185.543 190.265 185.349 191.019C185.133 191.848 184.782 192.587 183.863 192.789C182.938 192.998 182.228 192.535 181.646 191.863C181.213 191.355 180.937 190.758 180.72 190.131C180.041 188.205 179.712 186.204 179.339 184.211C179.205 183.486 179.078 182.755 178.817 182.06C178.511 181.232 178.145 181.045 177.294 181.269C176.704 181.426 176.159 181.702 175.636 182.008C172.687 183.71 169.626 185.181 166.476 186.473C166.259 186.562 166.043 186.674 165.796 186.667C165.505 186.659 165.296 186.532 165.177 186.264C165.057 185.987 165.132 185.734 165.341 185.547C165.498 185.413 165.684 185.308 165.878 185.226C169.111 183.8 172.239 182.157 175.33 180.44C175.883 180.134 176.465 179.888 177.085 179.739C178.481 179.41 179.526 179.918 180.123 181.217C180.564 182.187 180.72 183.233 180.907 184.27C181.213 185.928 181.504 187.593 182.019 189.205C182.176 189.705 182.355 190.206 182.647 190.654C182.796 190.878 182.953 191.087 183.199 191.206C183.423 191.318 183.61 191.281 183.722 191.042C183.871 190.728 183.923 190.392 183.946 190.041C184.035 188.638 183.871 187.249 183.692 185.861C183.393 183.531 182.99 181.217 182.535 178.917C182.072 176.581 182.169 174.251 182.564 171.922C183.662 165.539 185.506 159.357 187.626 153.243C188.686 150.182 189.717 147.106 190.762 144.037C190.844 143.798 190.919 143.559 191.001 143.321C190.814 143.261 190.739 143.335 190.657 143.403C187.641 145.635 184.274 147.188 180.802 148.547C179.548 149.039 178.272 149.465 176.965 149.771C176.442 149.89 176.189 150.144 176.047 150.674C174.136 157.722 171.956 164.695 169.82 171.676C169.357 173.191 168.82 174.677 168.2 176.133C167.043 178.865 165.333 181.157 162.87 182.859C162.302 183.248 161.75 183.658 161.265 184.143C160.817 184.599 160.436 185.099 160.212 185.711C160.048 186.167 160.107 186.256 160.593 186.316C161.25 186.398 161.892 186.54 162.504 186.794C163.997 187.413 164.796 188.518 164.803 190.153C164.811 191.258 164.811 192.371 164.803 193.476C164.773 196.432 164.572 199.381 164.146 202.308C164.057 202.935 163.922 203.554 163.654 204.129C163.064 205.369 161.817 205.458 161.041 204.323C160.734 203.883 160.593 203.375 160.481 202.853C160.107 201.143 160.003 199.403 159.891 197.671C159.689 194.566 159.398 191.467 159.047 188.376C158.987 187.817 158.98 187.802 158.413 187.854C156.785 188.011 155.18 188.332 153.567 188.6C150.096 189.175 146.602 189.369 143.085 189.235C141.607 189.175 140.136 189.108 138.658 189.063C136.045 188.974 133.462 188.608 130.879 188.197C127.288 187.63 123.689 187.063 120.158 186.196C116.447 185.293 112.759 184.278 109.176 182.941C108.459 182.673 108.556 182.576 108.175 183.322C107.07 185.51 106.003 187.72 104.913 189.914C104.219 191.311 103.464 192.669 102.658 193.998C102.233 194.7 101.785 195.387 101.18 195.947C100.642 196.447 100.03 196.835 99.2538 196.499C98.4549 196.148 98.2832 195.447 98.3056 194.663C98.328 193.729 98.552 192.834 98.8506 191.96C99.8212 189.116 101.001 186.346 102.121 183.561C102.591 182.389 103.069 181.217 103.487 180.022C104.293 177.708 104.316 175.379 103.756 173.012C103.151 170.496 102.285 168.062 101.538 165.591C100.59 162.433 99.7913 159.238 99.3359 155.968C99.1418 154.557 99.0149 153.138 98.9701 151.712C98.9029 149.651 98.4773 147.703 97.5665 145.836C96.7602 144.179 95.9614 142.514 95.5358 140.7C95.1401 138.99 95.0356 137.273 95.2596 135.519C95.7598 131.502 98.9104 129.262 102.188 128.926C102.681 128.874 103.091 128.732 103.487 128.449C107.586 125.567 112.11 123.715 117.067 122.946C119.21 122.61 121.367 122.476 123.532 122.722C127.407 123.17 130.095 125.253 131.73 128.747C132.887 131.204 133.148 133.802 132.895 136.474C132.693 138.251 132.238 139.968 131.282 141.715ZM176.771 148.166C177.04 148.203 177.211 148.136 177.391 148.091C178.72 147.748 179.996 147.255 181.265 146.732C185.185 145.12 188.948 143.246 191.956 140.133C193.233 138.804 194.301 137.348 195.017 135.653C196.346 132.495 195.256 128.986 192.389 127.105C190.986 126.179 189.463 125.5 187.805 125.246C185.185 124.85 182.549 124.917 179.922 125.291C177.062 125.694 174.419 126.717 171.896 128.075C167.431 130.472 164.042 133.891 162.026 138.602C160.839 141.379 160.018 144.261 159.376 147.203C158.383 151.764 157.405 156.326 156.068 160.798C155.508 162.672 154.829 164.501 153.941 166.24C151.932 170.16 148.812 172.668 144.474 173.587C142.817 173.938 141.129 174.057 139.442 174.08C134.388 174.139 129.386 173.676 124.428 172.691C121.883 172.183 119.419 171.414 117.134 170.175C114.17 168.562 111.953 166.285 110.997 162.97C110.415 160.97 110.057 158.909 109.96 156.819C109.803 153.369 109.586 149.92 109.624 146.456C109.624 146.284 109.691 146.09 109.504 145.911C109.288 145.911 109.153 146.09 108.982 146.195C108.422 146.546 107.817 146.807 107.153 146.912C105.465 147.165 103.95 146.695 102.613 145.71C97.8502 142.216 97.4172 135.437 100.254 131.398C100.351 131.263 100.53 131.159 100.456 130.868C98.7461 131.607 97.5217 132.749 97.0066 134.541C96.484 136.355 96.5586 138.192 96.9394 140.021C97.3052 141.797 98.0742 143.418 98.873 145.023C99.9406 147.173 100.426 149.435 100.486 151.809C100.523 153.257 100.672 154.706 100.889 156.139C101.367 159.297 102.15 162.388 103.084 165.442C103.853 167.965 104.764 170.444 105.301 173.027C105.6 174.453 105.764 175.886 105.607 177.35C105.421 179.104 104.853 180.739 104.219 182.359C103.069 185.278 101.897 188.182 100.739 191.102C100.396 191.96 100.105 192.834 99.9332 193.744C99.866 194.11 99.7689 194.484 99.9108 194.879C100.269 194.737 100.411 194.469 100.59 194.245C101.18 193.498 101.643 192.662 102.113 191.841C103.539 189.34 104.734 186.727 106.003 184.143C106.384 183.359 106.787 182.591 107.205 181.829C107.63 181.06 107.989 180.956 108.84 181.269C109.385 181.471 109.93 181.672 110.475 181.851C113.409 182.814 116.365 183.681 119.367 184.382C126.743 186.099 134.186 187.436 141.794 187.637C144.832 187.72 147.863 187.772 150.88 187.384C153.366 187.063 155.829 186.644 158.308 186.286C158.599 186.241 158.704 186.107 158.756 185.838C158.98 184.591 159.682 183.621 160.578 182.762C161.138 182.232 161.75 181.777 162.369 181.329C164.221 179.97 165.572 178.208 166.535 176.14C167.275 174.557 167.857 172.922 168.365 171.257C170.209 165.21 172.105 159.17 173.807 153.078C174.053 152.19 174.307 151.309 174.561 150.406C174.143 150.271 173.785 150.383 173.426 150.428C171.978 150.615 170.522 150.704 169.096 150.338C165.572 149.428 163.676 147.427 163.265 144.254C162.922 141.574 163.221 138.916 164.415 136.452C165.707 133.772 167.775 132.107 170.866 131.92C175.099 131.666 177.197 134.227 177.846 137.012C178.025 137.781 178.092 138.572 178.107 139.364C178.16 141.947 177.622 144.448 177.025 146.934C176.913 147.352 176.749 147.718 176.771 148.166ZM158.39 144.709C158.077 144.634 157.823 144.575 157.569 144.522C154.956 144.015 152.328 143.604 149.7 143.201C143.578 142.26 137.464 142.305 131.349 143.261C130.983 143.321 130.73 143.455 130.506 143.761C128.773 146.075 126.743 148.099 124.399 149.801C122.487 151.182 120.479 152.376 118.232 153.123C117.575 153.34 116.903 153.452 116.209 153.407C114.79 153.31 114.036 152.235 114.439 150.868C114.574 150.406 114.812 149.995 115.104 149.614C115.701 148.83 116.418 148.181 117.209 147.598C120.613 145.105 124.428 143.477 128.482 142.395C129.229 142.193 129.647 141.82 129.99 141.178C131.185 138.968 131.446 136.579 131.401 134.123C131.372 132.443 131.006 130.83 130.282 129.307C128.983 126.582 126.937 124.805 123.898 124.313C122.353 124.059 120.8 124.081 119.247 124.223C114.35 124.656 109.825 126.172 105.674 128.814C105.532 128.904 105.353 128.956 105.301 129.143C105.353 129.188 105.368 129.218 105.391 129.225C105.562 129.292 105.734 129.352 105.906 129.419C107.765 130.128 109.273 131.301 110.326 132.973C112.237 136.004 112.73 139.259 111.498 142.656C111.132 143.664 111.072 144.642 111.087 145.672C111.117 148.838 111.266 151.996 111.378 155.161C111.453 157.274 111.729 159.357 112.14 161.432C112.774 164.65 114.611 166.972 117.381 168.607C118.934 169.518 120.591 170.197 122.331 170.66C125.526 171.504 128.781 172.004 132.066 172.295C135.537 172.609 139.017 172.743 142.488 172.392C147.229 171.914 150.678 169.578 152.768 165.27C153.493 163.769 154.097 162.224 154.575 160.634C156.128 155.423 157.196 150.092 158.39 144.709ZM176.607 139.856C176.637 139.117 176.547 138.378 176.413 137.654C176.099 135.914 175.248 134.518 173.576 133.832C171.851 133.122 168.82 133.167 167.028 135.243C166.386 135.989 165.834 136.78 165.49 137.706C164.796 139.535 164.557 141.447 164.654 143.373C164.803 146.352 166.401 148.323 169.858 148.995C171.47 149.308 173.053 149.002 174.643 148.778C174.964 148.733 175.069 148.517 175.136 148.24C175.293 147.628 175.457 147.016 175.599 146.404C176.121 144.246 176.547 142.081 176.607 139.856ZM110.617 139.199C110.609 137.423 110.191 135.862 109.392 134.399C108.228 132.286 106.481 130.98 104.099 130.509C103.547 130.397 103.158 130.532 102.748 130.912C100.269 133.219 99.6271 136.094 100.239 139.296C100.642 141.409 101.725 143.164 103.472 144.478C104.233 145.045 105.099 145.381 106.025 145.456C107.63 145.59 108.735 144.754 109.497 143.418C110.243 142.074 110.557 140.61 110.617 139.199ZM128.214 144.112C128.116 144.037 128.012 144.06 127.915 144.089C124.301 145.172 120.905 146.703 117.866 148.965C117.314 149.375 116.821 149.846 116.388 150.383C116.186 150.63 116.014 150.898 115.902 151.197C115.746 151.645 115.865 151.846 116.335 151.906C116.545 151.929 116.754 151.906 116.963 151.876C117.649 151.787 118.292 151.533 118.919 151.257C122.472 149.674 125.474 147.359 128.034 144.44C128.109 144.343 128.206 144.254 128.214 144.112ZM162.28 203.248C162.564 202.681 162.593 202.106 162.676 201.539C163.049 198.978 163.153 196.402 163.258 193.819C163.31 192.58 163.318 191.34 163.325 190.109C163.325 189.69 163.318 189.257 162.959 188.944C162.422 188.466 161.817 188.1 161.1 187.958C160.563 187.854 160.511 187.891 160.578 188.451C160.951 191.803 161.235 195.163 161.466 198.522C161.548 199.754 161.645 200.994 161.892 202.211C161.959 202.554 161.981 202.935 162.28 203.248Z" fill="#303030"/>
<path d="M66.1505 135.937C65.9863 135.25 65.5234 134.802 64.9485 134.459C64.4483 134.153 63.8809 134.026 63.3061 133.914C61.9846 133.66 60.6408 133.578 59.2969 133.473C56.3554 133.242 53.4064 133.048 50.4649 132.809C49.2555 132.712 48.0535 132.547 46.8888 132.182C45.9929 131.905 45.1791 131.487 44.4774 130.868C43.3276 129.86 42.9693 128.635 43.4396 127.157C43.9846 125.425 45.1269 124.201 46.6275 123.275C48.8523 121.894 51.2936 121.102 53.8544 120.602C57.6843 119.856 61.5516 119.736 65.4338 119.751C71.3467 119.773 77.1625 120.505 82.8739 122.036C84.2774 122.409 85.6586 122.842 86.9427 123.544C87.5475 123.872 88.1298 124.238 88.6449 124.693C90.7577 126.545 91.0638 129.501 89.3392 131.734C88.518 132.794 87.4579 133.57 86.3007 134.227C84.5835 135.198 82.7022 135.728 80.7909 136.116C76.8863 136.915 72.9295 137.348 68.9427 137.527C68.8606 137.527 68.7859 137.535 68.7038 137.535C68.3753 137.512 68.226 137.617 68.2857 137.99C68.3529 138.43 68.3529 138.886 68.3977 139.326C68.6142 141.462 68.4276 143.597 68.2932 145.724C68.1439 147.987 67.9722 150.249 67.8527 152.511C67.584 157.7 67.6138 162.896 67.569 168.092C67.569 168.331 67.5765 168.57 67.5392 168.801C67.4645 169.212 67.1285 169.481 66.7627 169.451C66.4118 169.428 66.1655 169.182 66.0983 168.779C66.0759 168.652 66.0759 168.518 66.0759 168.383C66.1356 163.269 66.0535 158.148 66.3148 153.033C66.4566 150.294 66.6881 147.561 66.8523 144.821C66.9792 142.581 67.0613 140.342 66.7851 138.102C66.7403 137.766 66.7105 137.505 66.255 137.49C63.963 137.445 61.6711 137.415 59.394 137.841C57.0348 138.289 55.1534 139.52 53.6229 141.327C51.8909 143.38 50.6292 145.724 49.4645 148.121C47.4786 152.197 45.866 156.445 43.9846 160.566C43.1261 162.463 42.3123 164.381 41.4761 166.285C41.282 166.733 40.9834 166.897 40.625 166.778C40.2891 166.666 40.1024 166.293 40.2069 165.86C40.2816 165.554 40.416 165.262 40.528 164.971C42.1182 160.895 43.9921 156.938 45.6719 152.892C46.7768 150.234 47.9713 147.621 49.3301 145.09C50.1439 143.574 51.0622 142.133 52.1223 140.782C54.377 137.885 57.3409 136.355 60.9917 136.079C62.4923 135.967 63.9929 135.892 65.4935 135.952C65.7026 136.011 65.9116 136.049 66.1505 135.937ZM64.9485 121.267C59.9465 121.259 57.2961 121.476 53.5856 122.207C51.3981 122.64 49.3227 123.387 47.4114 124.559C46.3363 125.223 45.4479 126.067 44.985 127.284C44.4998 128.546 44.7387 129.3 45.866 130.061C46.7395 130.651 47.7324 130.912 48.7478 131.077C51.0174 131.442 53.3094 131.51 55.6014 131.704C58.0427 131.905 60.4989 132.002 62.9328 132.323C65.1352 132.615 66.9494 133.421 67.7482 135.698C67.8453 135.967 68.0394 136.049 68.3007 136.034C68.562 136.019 68.8307 136.019 69.092 136.011C71.7051 135.944 74.2957 135.623 76.8863 135.28C79.0589 134.989 81.209 134.593 83.292 133.906C84.9942 133.346 86.547 132.532 87.8013 131.226C88.8764 130.099 89.2347 128.785 88.7046 127.291C88.3687 126.351 87.652 125.731 86.8307 125.223C85.6362 124.477 84.3222 124.007 82.9709 123.633C76.961 121.976 70.8316 121.222 64.9485 121.267Z" fill="#303030"/>
<path d="M90.2575 165.673C90.2724 166.128 90.0783 166.427 89.7498 166.524C89.4064 166.621 89.0854 166.487 88.8912 166.128C88.8091 165.972 88.7569 165.785 88.7121 165.606C86.9875 158.999 85.009 152.466 83.3591 145.836C82.7917 143.559 82.2467 141.275 81.7017 138.998C81.6793 138.893 81.6494 138.789 81.642 138.684C81.6121 138.259 81.7913 137.96 82.1273 137.893C82.4931 137.818 82.7469 137.997 82.8888 138.311C82.9858 138.527 83.0381 138.759 83.0978 138.99C84.591 144.455 85.9273 149.965 87.4877 155.415C88.3985 158.61 89.2421 161.821 90.1156 165.024C90.1679 165.262 90.2127 165.494 90.2575 165.673Z" fill="#303030"/>
<path d="M162.37 37.1496C162.362 37.2392 162.347 37.3214 162.362 37.3885C162.758 39.255 162.817 41.1513 162.922 43.0476C163.056 45.5188 162.803 47.9452 162.407 50.3641C162.086 52.3201 161.317 54.1044 159.921 55.5677C159.794 55.7021 159.682 55.8589 159.533 55.9634C158.263 56.8518 156.927 57.5163 155.337 57.6357C152.888 57.8149 150.581 57.3446 148.319 56.4188C145.549 55.2766 142.988 53.7759 140.554 52.0439C139.741 51.469 139.031 50.7523 138.255 50.0804C137.8 50.2969 137.419 50.6254 137.038 50.9539C136 51.8498 134.866 52.6187 133.768 53.4325C132.499 54.3732 131.252 55.3363 129.916 56.2023C128.945 56.8294 127.952 57.4342 127.034 58.1434C126.825 58.3077 126.593 58.4271 126.31 58.4271C125.735 58.4271 125.451 57.9792 125.69 57.4566C125.81 57.1953 126.026 57.0609 126.258 56.9265C127.788 55.9933 129.229 54.9257 130.625 53.8133C131.364 53.2235 132.178 52.7307 132.939 52.1633C134.224 51.1928 135.433 50.1326 136.777 49.2442C136.881 49.1695 136.978 49.0725 137.068 48.9829C137.195 48.856 137.225 48.744 137.083 48.5797C136.486 47.863 136.135 47.0119 135.799 46.1459C135.269 44.7871 135.351 43.4508 135.859 42.1368C136.269 41.0692 136.904 40.136 137.71 39.3147C138.972 38.0157 140.465 37.0302 142.048 36.1866C143.347 35.4922 144.705 34.9174 146.049 34.3126C147.378 33.7154 148.774 33.3421 150.141 32.8792C150.88 32.6254 151.686 32.5507 152.485 32.7448C153.597 33.0211 154.075 33.8423 153.761 34.9472C153.455 36.0223 152.724 36.8361 152.052 37.6722C151.567 38.2919 150.992 38.8444 150.432 39.3894C148.916 40.8601 147.401 42.316 145.803 43.6971C144.011 45.2425 142.204 46.7805 140.398 48.3184C140.121 48.5574 139.808 48.7589 139.494 48.9978C140.629 50.267 141.966 51.2376 143.384 52.0887C144.377 52.6859 145.362 53.2907 146.4 53.8282C148.05 54.6718 149.752 55.3661 151.544 55.844C153.179 56.277 154.822 56.3292 156.464 55.8738C158.136 55.4109 159.226 54.2985 159.98 52.7979C160.652 51.4615 160.966 50.0132 161.13 48.5424C161.429 45.8921 161.548 43.2417 161.212 40.5764C161.085 39.5835 161.063 38.5756 160.846 37.5976C160.749 37.1347 160.623 36.6793 160.525 36.2164C160.481 35.9775 160.324 35.8581 160.137 35.7461C158.98 35.0592 157.898 34.2678 156.808 33.4765C155.994 32.8792 155.255 32.1924 154.627 31.4234C153.269 29.7361 153.396 27.8174 155.068 26.2795C156.628 24.8386 158.45 24.2488 160.533 24.8908C162.205 25.406 163.4 26.4512 163.781 28.228C163.967 29.1165 163.84 30.0049 163.586 30.8858C163.258 32.043 162.668 33.0659 162.086 34.0961C161.69 34.7979 161.683 34.7979 162.392 35.2384C164.296 36.418 166.304 37.4259 168.275 38.4785C170.044 39.4192 171.836 40.3151 173.583 41.2931C176.898 43.1372 180.19 45.0335 183.498 46.885C186.671 48.6619 189.866 50.3939 193.039 52.1783C194.622 53.0741 196.175 54.0223 197.72 54.9705C201.692 57.4192 205.738 59.7486 209.904 61.8539C212.868 63.3545 215.922 64.6685 219.109 65.6241C220.603 66.0721 220.565 66.2065 220.655 64.5117C220.737 62.9514 221.148 61.4508 222.155 60.2562C223.529 58.6212 225.821 58.4271 227.284 60.4205C229.487 63.4143 227.247 66.6619 224.873 67.3562C224.074 67.5876 223.29 67.7444 222.469 67.7369C222.088 67.7295 221.954 67.8713 221.969 68.2446C222.021 69.6407 222.051 71.0368 222.088 72.4329C222.096 72.6196 222.126 72.7987 222.126 72.9854C222.148 75.9344 222.148 78.8908 222.2 81.8398C222.267 85.5055 222.275 89.1712 222.32 92.8294C222.335 94.121 222.327 95.4126 222.357 96.6967C222.402 98.802 222.365 100.915 222.491 103.02C222.588 104.707 222.521 106.395 222.641 108.075C222.768 109.762 222.686 111.449 222.798 113.129C222.902 114.637 222.805 116.13 222.798 117.631C222.79 119.766 222.663 121.901 222.656 124.029C222.656 125.925 222.491 127.822 222.506 129.71C222.529 131.637 222.35 133.555 222.35 135.474C222.35 136.9 222.193 138.311 222.163 139.729C222.088 142.552 221.797 145.359 221.573 148.166C221.409 150.264 221.028 152.347 220.588 154.415C220.334 155.609 220.073 155.452 221.409 155.818C223.656 156.43 225.821 157.252 227.792 158.513C228.636 159.051 229.442 159.648 230.233 160.26C231.443 161.201 232.622 162.172 233.705 163.254C234.564 164.105 235.377 165.024 235.833 166.173C236.169 167.024 235.952 167.368 235.064 167.599C233.713 167.95 232.331 168.137 230.95 168.338C227.262 168.868 223.552 169.033 219.849 169.301C219.274 169.346 218.691 169.354 218.109 169.369C215.817 169.436 213.525 169.54 211.233 169.593C209.464 169.63 207.709 169.488 205.947 169.451C203.11 169.391 200.348 168.809 197.556 168.45C197.138 168.398 196.727 168.286 196.346 168.092C196.003 167.92 195.868 167.599 195.958 167.233C196.048 166.882 196.287 166.696 196.645 166.688C196.854 166.688 197.07 166.711 197.272 166.756C200.594 167.539 203.984 167.853 207.381 168.002C211.069 168.159 214.757 168.01 218.445 167.778C218.975 167.749 219.498 167.719 220.028 167.711C222.163 167.696 224.291 167.48 226.411 167.278C228.666 167.062 230.935 166.965 233.167 166.532C233.466 166.472 233.772 166.405 234.138 166.323C233.802 165.71 233.444 165.195 233.003 164.747C230.681 162.336 228.076 160.305 225.082 158.79C223.619 158.05 222.073 157.528 220.491 157.11C220.02 156.99 219.908 157.17 219.766 157.535C219.221 158.939 218.587 160.29 217.676 161.507C216.631 162.888 215.391 164.038 213.951 164.994C212.674 165.837 211.241 166.173 209.792 166.36C208.306 166.554 206.866 166.143 205.664 165.285C204.491 164.441 203.864 163.239 204.215 161.709C204.402 160.902 204.7 160.148 205.208 159.491C206.007 158.461 206.933 157.61 208.09 156.953C210.74 155.437 213.6 154.922 216.601 154.997C217.153 155.012 217.706 155.101 218.251 155.154C218.863 155.213 218.871 155.213 219.027 154.586C219.356 153.28 219.557 151.958 219.707 150.615C219.893 148.86 220.214 147.113 220.296 145.351C220.416 142.828 220.722 140.312 220.73 137.781C220.73 136.467 220.931 135.145 220.909 133.831C220.879 131.622 221.133 129.412 221.043 127.202C221.021 126.545 221.11 125.888 221.133 125.223C221.2 122.693 221.282 120.162 221.312 117.631C221.342 115.705 221.387 113.778 221.275 111.86C221.185 110.172 221.26 108.485 221.125 106.805C220.998 105.17 221.065 103.535 220.983 101.908C220.804 98.4288 220.864 94.9497 220.804 91.4781C220.774 89.7386 220.856 87.9991 220.789 86.2595C220.655 82.7805 220.73 79.3014 220.632 75.8224C220.558 73.2392 220.64 70.6561 220.543 68.0804C220.528 67.61 220.379 67.4458 219.946 67.3562C216.593 66.6469 213.495 65.2583 210.412 63.8099C207.306 62.3466 204.327 60.6594 201.371 58.9273C198.504 57.2475 195.682 55.5005 192.807 53.8357C190.389 52.4396 187.925 51.1181 185.484 49.7593C183.505 48.6544 181.527 47.5495 179.556 46.4296C175.778 44.2795 172 42.1218 168.133 40.1285C166.349 39.2102 164.594 38.2471 162.825 37.3214C162.676 37.2392 162.556 37.1272 162.37 37.1496ZM138.479 47.8257C138.628 47.7212 138.725 47.6764 138.8 47.6092C140.129 46.452 141.503 45.3471 142.854 44.2048C144.362 42.9282 145.81 41.5768 147.289 40.2778C148.461 39.2475 149.566 38.1575 150.589 36.9929C151.163 36.3433 151.716 35.6639 152.112 34.8875C152.373 34.3798 152.268 34.2007 151.708 34.2305C151.022 34.2678 150.342 34.3873 149.693 34.6038C147.669 35.2832 145.713 36.1044 143.78 37.0227C141.801 37.9559 140.024 39.1579 138.509 40.7257C137.703 41.5694 137.113 42.5474 137.046 43.7942C136.978 45.3172 137.456 46.6237 138.479 47.8257ZM218.348 156.789C216.25 156.423 214.287 156.415 212.301 156.923C210.807 157.304 209.359 157.782 208.127 158.715C207.075 159.514 206.126 160.432 205.776 161.798C205.499 162.881 205.932 163.799 206.948 164.247C209.688 165.471 212.047 164.538 214.227 162.896C215.235 162.134 216.034 161.134 216.743 160.074C217.422 159.058 217.878 157.953 218.348 156.789ZM162.377 29.3703C162.295 28.019 161.727 26.8991 160.421 26.3989C159.323 25.9808 158.308 26.1749 157.278 26.5632C156.397 26.8991 155.815 27.5486 155.411 28.3923C155.165 28.9149 155.18 29.4226 155.486 29.9004C155.785 30.3632 156.091 30.8187 156.494 31.2069C157.562 32.2297 158.771 33.0659 160.033 33.8348C160.369 34.0364 160.563 33.9767 160.727 33.6631C161.22 32.7374 161.795 31.8489 162.078 30.8187C162.22 30.3408 162.355 29.8556 162.377 29.3703ZM222.887 66.1094C223.066 66.087 223.357 66.0571 223.641 66.0273C224.88 65.9004 225.732 65.206 226.306 64.1534C227.038 62.8245 226.471 61.1894 225.134 60.6146C224.791 60.4653 224.485 60.4727 224.141 60.6071C223.469 60.8759 223.141 61.4433 222.865 62.048C222.379 63.1156 222.178 64.2579 222.096 65.4225C222.051 66.0945 222.088 66.1243 222.887 66.1094Z" fill="#303030"/>
<path d="M138.046 66.7664C138.024 66.3558 138.143 66.1467 138.24 65.9377C139.688 62.8991 141.167 59.8755 142.802 56.934C142.876 56.7996 142.944 56.6503 143.033 56.5233C143.242 56.2247 143.526 56.1277 143.862 56.277C144.168 56.4113 144.377 56.8145 144.258 57.1281C144.056 57.6432 143.817 58.1434 143.563 58.6287C142.279 61.0775 141.137 63.586 139.942 66.0795C139.771 66.4304 139.636 66.8187 139.338 67.0874C139.099 67.3114 138.815 67.4383 138.472 67.3039C138.143 67.177 138.061 66.9082 138.046 66.7664Z" fill="#303030"/>
<path d="M150.409 68.9315C150.633 65.8854 150.857 62.9663 151.462 60.0995C151.492 59.9725 151.499 59.8382 151.544 59.7112C151.693 59.2708 151.999 59.0617 152.358 59.1364C152.724 59.2185 152.903 59.5246 152.843 59.9949C152.761 60.5922 152.612 61.1895 152.574 61.7942C152.425 64.1608 152.052 66.5051 151.947 68.8792C151.94 69.036 151.947 69.2002 151.902 69.3496C151.79 69.7378 151.492 69.8871 151.119 69.8946C150.768 69.902 150.476 69.6407 150.409 69.2674C150.387 69.1181 150.409 68.9613 150.409 68.9315Z" fill="#303030"/>
<path d="M102.046 106.813C101.187 105.648 100.202 104.625 99.0298 103.797C95.7673 101.49 92.2434 99.7651 88.2716 99.026C85.36 98.4885 82.4632 98.3018 79.574 99.1231C79.3948 99.1753 79.2156 99.2276 79.0364 99.2351C78.7229 99.2425 78.4616 99.1007 78.3496 98.8021C78.2376 98.5034 78.3123 98.2272 78.5437 98.0032C78.7229 97.8315 78.9394 97.7494 79.1708 97.6897C81.1493 97.1596 83.1501 96.9281 85.2032 97.0924C90.5487 97.5105 95.3566 99.3471 99.7167 102.438C101.284 103.55 102.546 104.954 103.711 106.469C103.793 106.574 103.868 106.686 103.927 106.805C104.293 107.53 104.024 108.134 103.233 108.291C102.539 108.425 101.829 108.515 101.12 108.597C98.119 108.941 95.1177 108.903 92.1165 108.627C89.3392 108.373 86.6441 107.761 84.0908 106.649C80.7312 105.185 77.8942 103.065 75.8411 99.9742C75.6694 99.7129 75.5051 99.5486 75.1542 99.571C73.6984 99.6606 72.2874 99.9667 70.8913 100.385C70.5553 100.489 70.5553 100.736 70.5329 100.997C70.3985 102.333 70.2567 103.67 70.0999 105.006C70.0327 105.611 69.9357 106.208 69.8237 106.805C69.7565 107.171 69.8461 107.321 70.2492 107.35C71.8544 107.462 73.4371 107.739 75.0049 108.119C75.647 108.276 76.2741 108.47 76.8788 108.739C79.0141 109.702 80.1712 111.3 80.1265 113.689C80.1041 115.145 79.8651 116.578 79.5964 118.004C79.1484 120.386 78.7229 122.775 78.0062 125.097C77.7523 125.903 77.4686 126.694 77.0282 127.426C76.2741 128.658 75.1916 129.434 73.7357 129.457C70.3089 129.509 66.8747 129.546 63.4703 129.009C62.8432 128.912 62.2384 128.74 61.6486 128.486C60.4691 127.986 59.7449 127.112 59.4761 125.858C59.2223 124.641 59.1028 123.409 58.9311 122.185C58.4906 119.027 58.08 115.861 57.8859 112.673C57.8635 112.308 57.8411 111.934 57.8635 111.569C57.8934 111.091 58.1397 110.822 58.513 110.829C58.8788 110.829 59.1327 111.083 59.17 111.569C59.282 113.069 59.4462 114.562 59.6404 116.055C60.0435 119.116 60.4168 122.177 60.8722 125.223C61.0365 126.328 61.6337 126.978 62.6715 127.277C63.5375 127.53 64.4184 127.68 65.3143 127.754C67.8378 127.978 70.3761 127.934 72.907 127.986C73.0116 127.986 73.1161 127.978 73.2206 127.986C74.5719 128.016 75.4603 127.359 75.9979 126.157C76.625 124.753 76.9908 123.267 77.3119 121.767C77.7971 119.497 78.2824 117.228 78.5362 114.921C78.581 114.525 78.6184 114.129 78.6184 113.741C78.6333 111.964 77.8718 110.807 76.2368 110.098C75.2364 109.665 74.1762 109.471 73.1161 109.247C72.0783 109.03 71.0257 108.956 69.9805 108.814C69.5549 108.754 69.4355 108.933 69.3533 109.299C69.2488 109.814 69.107 110.322 68.9502 110.829C68.7411 111.486 68.4052 112.084 67.9423 112.606C67.2928 113.353 66.4939 113.816 65.4861 113.898C64.5528 113.98 63.6345 113.905 62.7536 113.622C61.9323 113.353 61.238 112.883 60.8274 112.084C60.26 110.986 60.4914 109.807 61.4396 109.015C62.0145 108.537 62.6789 108.216 63.3807 107.985C64.7917 107.522 66.2252 107.194 67.7183 107.201C68.0543 107.201 68.2559 107.134 68.3156 106.753C68.5844 104.984 68.8307 103.207 68.9651 101.415C68.9726 101.311 68.9576 101.206 68.9427 101.079C68.5993 101.012 68.3231 101.191 68.0319 101.281C65.9415 101.938 63.8287 102.475 61.6262 102.647C59.5806 102.804 57.5723 102.587 55.564 102.259C52.6076 101.766 49.7706 100.915 47.0754 99.5785C44.7536 98.4288 42.7528 96.861 40.9535 95.0094C39.0945 93.0982 37.3998 91.0376 35.8768 88.8502C35.5931 88.4396 35.3094 88.0215 35.1526 87.5362C34.8689 86.6702 35.2571 86.043 36.1679 85.9833C39.9904 85.7519 43.8129 85.6399 47.6279 86.058C50.4201 86.3641 53.1377 86.9016 55.7507 87.9916C59.8942 89.7237 63.2389 92.374 65.613 96.204C65.6802 96.3159 65.7623 96.4205 65.822 96.5399C66.0161 96.9281 66.2849 97.0476 66.7254 96.9356C67.3376 96.7863 67.9647 96.6743 68.5918 96.5922C69.0248 96.5399 69.1592 96.3383 69.1443 95.9128C69.0771 94.3375 68.7411 92.8369 67.9871 91.4333C67.1883 89.9626 66.1356 88.6785 65.0754 87.4018C62.7834 84.632 60.7378 81.6979 58.8788 78.622C56.7735 75.1281 55.5118 71.3802 55.0265 67.3338C54.7055 64.6834 54.4367 62.0405 54.4218 59.3678C54.4218 59.1065 54.3994 58.8377 54.489 58.5839C54.6905 58.0165 55.2281 57.8 55.7581 58.0837C55.8925 58.1583 56.0194 58.2629 56.1389 58.3599C59.924 61.5478 62.7685 65.4151 64.6051 70.0215C65.6802 72.7091 66.3297 75.4939 66.7552 78.3458C66.8 78.6594 66.815 78.9729 67.0016 79.3388C67.2405 78.301 67.4496 77.3305 67.6885 76.3674C68.995 71.1563 71.1899 66.3782 74.669 62.2347C76.3338 60.2562 78.2899 58.6287 80.5445 57.3595C80.6789 57.2848 80.8208 57.2027 80.9626 57.1355C81.7017 56.807 82.2691 57.0235 82.5379 57.785C82.7917 58.4868 82.8589 59.2259 82.9709 59.9501C83.6802 64.6984 83.0157 69.2525 80.985 73.605C79.9846 75.7552 78.6333 77.659 76.9834 79.3612C75.8486 80.5407 74.6316 81.6308 73.4222 82.7357C72.3172 83.751 71.1974 84.7589 70.2642 85.9534C70.07 86.1998 69.9058 86.476 69.7117 86.7299C69.5325 86.9763 69.5474 87.1853 69.7117 87.4466C70.4433 88.6038 71.1526 89.7759 71.8768 90.9481C71.929 91.0302 71.9664 91.1422 72.1231 91.1646C72.3396 91.0824 72.4068 90.8361 72.5263 90.642C74.6615 87.1629 77.394 84.2214 80.5595 81.6606C83.8519 78.9953 87.652 77.4425 91.7731 76.6287C94.3338 76.121 96.9319 75.8522 99.5225 75.5387C101.307 75.3222 103.069 75.0161 104.831 74.6876C105.01 74.6503 105.197 74.598 105.376 74.598C106.145 74.598 106.518 75.2251 106.145 75.897C106.003 76.1509 105.816 76.3748 105.644 76.6063C104.928 77.5843 104.286 78.622 103.681 79.6673C99.9332 86.155 94.4384 90.5225 87.4504 93.1057C82.8888 94.7929 78.1779 95.9352 73.4595 97.0551C72.6905 97.2342 71.9141 97.3985 71.1451 97.5777C70.7046 97.6822 70.4284 98.272 70.6225 98.6751C70.7121 98.8692 70.8913 98.802 71.0406 98.7722C71.5259 98.6527 72.0111 98.5184 72.4964 98.4138C73.4744 98.1973 74.4749 98.1152 75.4753 98.048C76.0576 98.0032 76.4831 98.2048 76.7892 98.7274C78.0584 100.93 79.9025 102.565 82.0228 103.909C84.7702 105.656 87.8087 106.574 90.9966 106.999C94.4906 107.462 97.9921 107.5 101.486 107.029C101.68 106.992 101.852 107.022 102.046 106.813ZM103.8 76.4943C103.591 76.3898 103.382 76.4644 103.188 76.5018C101.785 76.7631 100.374 76.9198 98.9626 77.1065C96.484 77.435 93.9829 77.6739 91.5342 78.204C87.9581 78.9804 84.6432 80.3541 81.754 82.6386C78.5586 85.1621 75.8336 88.1111 73.7208 91.605C73.5043 91.9634 73.2953 92.3367 73.0564 92.6801C72.4666 93.5387 71.7498 93.5312 71.1974 92.6577C71.0705 92.4561 70.9585 92.2471 70.8316 92.0455C70.0029 90.7017 69.1965 89.3354 68.3231 88.014C67.8826 87.3495 67.8826 86.812 68.3081 86.1401C69.1592 84.8112 70.2119 83.6838 71.3467 82.6162C72.6905 81.3471 74.0792 80.1301 75.3857 78.8311C80.3952 73.8365 82.3139 67.7668 81.5673 60.7938C81.4927 60.1218 81.4703 59.435 81.2239 58.7855C80.9178 58.7855 80.7162 58.9796 80.4997 59.114C78.8274 60.1517 77.3492 61.4134 76.0576 62.8991C72.7055 66.7664 70.6001 71.2608 69.2787 76.1658C68.6292 78.5623 68.2783 81.0186 67.8676 83.4599C67.8228 83.751 67.7631 84.0347 67.6287 84.296C67.472 84.6021 67.2181 84.7739 66.8598 84.744C66.5387 84.7216 66.3222 84.5349 66.2177 84.2363C66.1654 84.087 66.1281 83.9302 66.0982 83.7809C65.9415 82.8477 65.7698 81.9145 65.6279 80.9738C65.277 78.6519 64.9784 76.3226 64.3587 74.053C62.9477 68.9091 60.5064 64.3699 56.5047 60.7564C56.3629 60.6295 56.2658 60.3831 55.9747 60.4802C55.9747 60.846 55.9597 61.2118 55.9747 61.5777C56.0941 64.1086 56.4002 66.6245 56.8258 69.1181C57.2364 71.5296 57.9829 73.8215 59.1476 75.9792C60.3496 78.2114 61.671 80.369 63.1343 82.4371C64.62 84.5275 66.2998 86.4536 67.8527 88.4843C69.1518 90.1791 70.1596 92.0157 70.4732 94.1658C70.5404 94.6063 70.5628 95.0542 70.615 95.5022C70.6897 96.1218 70.6972 96.1293 71.2795 96.0024C71.8693 95.8755 72.4591 95.7336 73.0489 95.5918C77.7673 94.4719 82.4856 93.3371 87.0398 91.6424C92.2957 89.6789 96.7751 86.6403 100.224 82.1683C101.561 80.4288 102.606 78.4951 103.771 76.6436C103.815 76.6137 103.793 76.554 103.8 76.4943ZM36.8921 87.4018C36.9369 87.7751 37.1086 87.9468 37.243 88.1334C38.6391 90.1193 40.192 91.9858 41.8569 93.7477C44.2534 96.2861 47.0829 98.1451 50.3679 99.3321C52.6374 100.153 54.9668 100.668 57.3484 100.975C59.5284 101.258 61.7084 101.251 63.8809 100.81C65.4338 100.497 66.9419 100.034 68.4425 99.5486C69.1219 99.3321 69.1219 99.3321 69.1368 98.6229C69.1368 98.4288 69.2189 98.2048 69.0174 98.0331C68.3977 98.1376 67.7781 98.2421 67.1584 98.3616C65.598 98.6453 65.3741 98.5482 64.5006 97.1969C64.4035 97.0401 64.3065 96.8833 64.2019 96.734C63.3284 95.4425 62.3878 94.2106 61.2306 93.1505C58.6325 90.7539 55.5566 89.2459 52.182 88.3425C49.2405 87.5586 46.2094 87.3495 43.1783 87.2525C41.0954 87.1778 39.0199 87.357 36.8921 87.4018ZM64.8291 112.39C66.0759 112.539 66.8448 111.837 67.3674 110.755C67.5839 110.299 67.7183 109.814 67.8228 109.329C67.9498 108.746 67.8975 108.679 67.3002 108.702C65.8369 108.761 64.4408 109.105 63.1045 109.702C62.888 109.799 62.6864 109.926 62.4997 110.068C61.9025 110.531 61.8652 111.158 62.3952 111.695C62.664 111.964 62.9925 112.121 63.3508 112.226C63.8212 112.352 64.2915 112.412 64.8291 112.39Z" fill="#303030"/>
<path fill-rule="evenodd" clip-rule="evenodd" d="M115.15 230.001C115.15 218.495 124.477 209.168 135.984 209.168C147.49 209.168 156.817 218.495 156.817 230.001C156.817 241.505 147.49 250.834 135.984 250.834C124.477 250.834 115.15 241.505 115.15 230.001ZM135.316 238.111L146.482 224.612C147.301 223.624 147.093 222.214 146.02 221.46C144.942 220.706 143.41 220.9 142.593 221.887L133.344 233.067L129.352 228.374C128.521 227.393 126.981 227.222 125.92 227.989C124.857 228.754 124.671 230.169 125.502 231.146L131.447 238.136C131.911 238.68 132.62 239 133.371 239H133.388C134.145 238.995 134.857 238.667 135.316 238.111Z" fill="#27AE60"/>
</svg>
