<svg width="24" height="28" viewBox="0 0 24 28" fill="none" xmlns="http://www.w3.org/2000/svg">
    <path
        d="M6.28271 10.3422V6.37662C6.28271 5.3484 6.61134 4.34793 7.21927 3.52535L7.31314 3.39835C9.73767 0.117775 14.6193 0.219874 16.9085 3.59903C17.4352 4.37642 17.7171 5.29761 17.7171 6.24099V10.3422"
        stroke="#1a1b1b" stroke-width="2" />
    <path fill-rule="evenodd" clip-rule="evenodd"
        d="M20.4416 8.3241H3.55837C2.55787 8.3241 1.71315 9.07844 1.58592 10.0855L0.0411274 22.3133C-0.339937 25.3296 1.97562 28 4.97225 28H19.0277C22.0244 28 24.3399 25.3296 23.9589 22.3133L22.4141 10.0855C22.2868 9.07844 21.4421 8.3241 20.4416 8.3241ZM6.77994 13.3692C6.77994 13.9265 6.33478 14.3782 5.78564 14.3782C5.23651 14.3782 4.79134 13.9265 4.79134 13.3692C4.79134 12.8119 5.23651 12.3602 5.78564 12.3602C6.33478 12.3602 6.77994 12.8119 6.77994 13.3692ZM17.7172 14.3782C18.2663 14.3782 18.7115 13.9265 18.7115 13.3692C18.7115 12.8119 18.2663 12.3602 17.7172 12.3602C17.1681 12.3602 16.7229 12.8119 16.7229 13.3692C16.7229 13.9265 17.1681 14.3782 17.7172 14.3782Z"
        fill="#1a1b1b" />
</svg>