<svg width="27" height="27" viewBox="0 0 27 27" fill="none" xmlns="http://www.w3.org/2000/svg">
    <path
        d="M0 3C0 1.34315 1.29518 0 2.89286 0H8.67857C10.2763 0 11.5714 1.34315 11.5714 3V9C11.5714 10.6569 10.2763 12 8.67857 12H2.89286C1.29518 12 0 10.6569 0 9V3Z"
        fill="#1a1b1b" />
    <path
        d="M15.4286 3C15.4286 1.34315 16.7237 0 18.3214 0H24.1071C25.7048 0 27 1.34315 27 3V9C27 10.6569 25.7048 12 24.1071 12H18.3214C16.7237 12 15.4286 10.6569 15.4286 9V3Z"
        fill="#1a1b1b" />
    <path
        d="M15.4286 18C15.4286 16.3431 16.7237 15 18.3214 15H24.1071C25.7048 15 27 16.3431 27 18V24C27 25.6569 25.7048 27 24.1071 27H18.3214C16.7237 27 15.4286 25.6569 15.4286 24V18Z"
        fill="#1a1b1b" />
    <path
        d="M0 18C0 16.3431 1.29518 15 2.89286 15H8.67857C10.2763 15 11.5714 16.3431 11.5714 18V24C11.5714 25.6569 10.2763 27 8.67857 27H2.89286C1.29518 27 0 25.6569 0 24V18Z"
        fill="#1a1b1b" />
</svg>