<svg width="44" height="44" viewBox="0 0 44 44" fill="none" xmlns="http://www.w3.org/2000/svg">
    <rect width="44" height="44" rx="10" fill="#181D25" />
    <path
        d="M25.59 22.26C28.4232 22.26 30.72 19.9632 30.72 17.13C30.72 14.2968 28.4232 12 25.59 12C22.7567 12 20.46 14.2968 20.46 17.13C20.46 19.9632 22.7567 22.26 25.59 22.26Z"
        stroke="#FFB23E" stroke-width="1.5" stroke-miterlimit="10" />
    <path
        d="M16.36 29.4393C18.0611 29.4393 19.44 28.0603 19.44 26.3593C19.44 24.6583 18.0611 23.2793 16.36 23.2793C14.659 23.2793 13.28 24.6583 13.28 26.3593C13.28 28.0603 14.659 29.4393 16.36 29.4393Z"
        stroke="#FFB23E" stroke-width="1.5" stroke-miterlimit="10" />
    <path
        d="M26.6201 32.0009C28.0339 32.0009 29.1801 30.8547 29.1801 29.4409C29.1801 28.027 28.0339 26.8809 26.6201 26.8809C25.2062 26.8809 24.0601 28.027 24.0601 29.4409C24.0601 30.8547 25.2062 32.0009 26.6201 32.0009Z"
        stroke="#FFB23E" stroke-width="1.5" stroke-miterlimit="10" />
</svg>