<svg width="44" height="44" viewBox="0 0 44 44" fill="none" xmlns="http://www.w3.org/2000/svg">
<rect width="44" height="44" rx="10" fill="#181D25"/>
<path d="M12.0701 14.6009C12.8701 11.1409 18.0801 11.1409 18.8701 14.6009C19.3401 16.6309 18.0501 18.3509 16.9301 19.4209C16.1101 20.2009 14.8201 20.1909 14.0001 19.4209C12.8901 18.3509 11.6001 16.6309 12.0701 14.6009Z" stroke="#92CBFF" stroke-width="1.5"/>
<path d="M25.07 26.6009C25.87 23.1409 31.11 23.1409 31.91 26.6009C32.38 28.6309 31.09 30.3509 29.96 31.4209C29.14 32.2009 27.84 32.1909 27.02 31.4209C25.89 30.3509 24.6 28.6309 25.07 26.6009Z" stroke="#92CBFF" stroke-width="1.5"/>
<path d="M21.9999 15H24.6799C26.5299 15 27.3899 17.29 25.9999 18.51L18.0099 25.5C16.6199 26.71 17.4799 29 19.3199 29H21.9999" stroke="#92CBFF" stroke-width="1.5" stroke-linecap="round" stroke-linejoin="round"/>
<path d="M15.4862 15.5H15.4978" stroke="#92CBFF" stroke-width="2" stroke-linecap="round" stroke-linejoin="round"/>
<path d="M28.4862 27.5H28.4978" stroke="#92CBFF" stroke-width="2" stroke-linecap="round" stroke-linejoin="round"/>
</svg>
