<svg width="44" height="44" viewBox="0 0 44 44" fill="none" xmlns="http://www.w3.org/2000/svg">
<rect width="44" height="44" rx="10" fill="#181D25"/>
<path d="M13.17 17.4395L22 22.5494L30.77 17.4694" stroke="#AD91FF" stroke-width="1.5" stroke-linecap="round" stroke-linejoin="round"/>
<path d="M22 31.6091V22.5391" stroke="#AD91FF" stroke-width="1.5" stroke-linecap="round" stroke-linejoin="round"/>
<path d="M19.93 12.48L14.59 15.45C13.38 16.12 12.39 17.8 12.39 19.18V24.83C12.39 26.21 13.38 27.89 14.59 28.56L19.93 31.53C21.07 32.16 22.94 32.16 24.08 31.53L29.42 28.56C30.63 27.89 31.62 26.21 31.62 24.83V19.18C31.62 17.8 30.63 16.12 29.42 15.45L24.08 12.48C22.93 11.84 21.07 11.84 19.93 12.48Z" stroke="#AD91FF" stroke-width="1.5" stroke-linecap="round" stroke-linejoin="round"/>
<path d="M27 23.2396V19.5797L17.51 14.0996" stroke="#AD91FF" stroke-width="1.5" stroke-linecap="round" stroke-linejoin="round"/>
</svg>
