<svg width="44" height="44" viewBox="0 0 44 44" fill="none" xmlns="http://www.w3.org/2000/svg">
<rect width="44" height="44" rx="10" fill="#181D25"/>
<path d="M32.9999 27.9091C33.0199 28.6591 32.8199 29.3691 32.4599 29.9791C32.2599 30.3391 31.9899 30.6691 31.6899 30.9391C30.9999 31.5791 30.0899 31.9691 29.0799 31.9991C27.6199 32.0291 26.3299 31.2791 25.6199 30.1291C25.2399 29.5391 25.0099 28.8291 24.9999 28.0791C24.9699 26.8191 25.5299 25.6791 26.4299 24.9291C27.1099 24.3691 27.9699 24.0191 28.9099 23.9991C31.1199 23.9491 32.9499 25.6991 32.9999 27.9091Z" stroke="#92F8FF" stroke-width="1.5" stroke-miterlimit="10" stroke-linecap="round" stroke-linejoin="round"/>
<path d="M27.4399 28.0288L28.45 28.9888L30.5399 26.9688" stroke="#92F8FF" stroke-width="1.5" stroke-linecap="round" stroke-linejoin="round"/>
<path d="M13.17 17.4395L22 22.5494L30.77 17.4694" stroke="#92F8FF" stroke-width="1.5" stroke-linecap="round" stroke-linejoin="round"/>
<path d="M22 31.6091V22.5391" stroke="#92F8FF" stroke-width="1.5" stroke-linecap="round" stroke-linejoin="round"/>
<path d="M31.61 19.17V24.83C31.61 24.88 31.61 24.92 31.6 24.97C30.9 24.36 30 24 29 24C28.06 24 27.19 24.33 26.5 24.88C25.58 25.61 25 26.74 25 28C25 28.75 25.21 29.46 25.58 30.06C25.67 30.22 25.78 30.37 25.9 30.51L24.07 31.52C22.93 32.16 21.07 32.16 19.93 31.52L14.59 28.56C13.38 27.89 12.39 26.21 12.39 24.83V19.17C12.39 17.79 13.38 16.11 14.59 15.44L19.93 12.48C21.07 11.84 22.93 11.84 24.07 12.48L29.41 15.44C30.62 16.11 31.61 17.79 31.61 19.17Z" stroke="#92F8FF" stroke-width="1.5" stroke-linecap="round" stroke-linejoin="round"/>
</svg>
