<svg width="44" height="44" viewBox="0 0 44 44" fill="none" xmlns="http://www.w3.org/2000/svg">
<rect width="44" height="44" rx="10" fill="#181D25"/>
<path d="M16.7 19.2598L21.9999 22.3298L27.2599 19.2798" stroke="#FFD392" stroke-width="1.5" stroke-linecap="round" stroke-linejoin="round"/>
<path d="M22 27.7703V22.3203" stroke="#FFD392" stroke-width="1.5" stroke-linecap="round" stroke-linejoin="round"/>
<path d="M20.76 16.2899L17.56 18.0699C16.84 18.4699 16.24 19.4799 16.24 20.3099V23.6999C16.24 24.5299 16.83 25.5399 17.56 25.9399L20.76 27.7199C21.44 28.0999 22.56 28.0999 23.25 27.7199L26.45 25.9399C27.17 25.5399 27.77 24.5299 27.77 23.6999V20.2999C27.77 19.4699 27.18 18.4599 26.45 18.0599L23.25 16.2799C22.56 15.8999 21.44 15.8999 20.76 16.2899Z" stroke="#FFD392" stroke-width="1.5" stroke-linecap="round" stroke-linejoin="round"/>
<path d="M32 25C32 28.87 28.87 32 25 32L26.05 30.25" stroke="#FFD392" stroke-width="1.5" stroke-linecap="round" stroke-linejoin="round"/>
<path d="M12 19C12 15.13 15.13 12 19 12L17.95 13.75" stroke="#FFD392" stroke-width="1.5" stroke-linecap="round" stroke-linejoin="round"/>
</svg>
