
<svg width="151" height="151" viewBox="0 0 151 151" fill="none" xmlns="http://www.w3.org/2000/svg">
<rect x="0.5" y="0.5" width="150" height="150" fill="#EAEAEA" stroke="#C4C4C4"/>
<path d="M1.26892 1.26891L41.874 41.8739" stroke="#C4C4C4"/>
<path d="M109.126 109.126L149.731 149.731" stroke="#C4C4C4"/>
<path d="M109.126 41.8739L149.731 1.26891" stroke="#C4C4C4"/>
<path d="M1.26892 149.731L41.874 109.126" stroke="#C4C4C4"/>
<path d="M60 68.6C60 66.6118 61.6926 65 63.7805 65C65.8684 65 67.561 66.6118 67.561 68.6C67.561 70.5882 65.8684 72.2 63.7805 72.2C61.6926 72.2 60 70.5882 60 68.6Z" fill="#959595"/>
<path d="M91 83H60.7561V78.68L64.4907 75.1236C64.9336 74.7019 65.6517 74.7019 66.0946 75.1236L69.8293 78.68L81.1248 67.9237C81.5678 67.5019 82.2859 67.5019 82.7288 67.9237L91 75.8V83Z" fill="#959595"/>
</svg>
