<svg width="95" height="86" viewBox="0 0 95 86" fill="none" xmlns="http://www.w3.org/2000/svg">
<path d="M20.1439 8.25299C23.0232 6.03641 24.4629 4.92812 26.1246 4.21436C26.878 3.89073 27.6614 3.62922 28.4655 3.43293C30.2389 3 32.1193 3 35.8802 3H59.6767C63.4375 3 65.318 3 67.0914 3.43293C67.8955 3.62922 68.6788 3.89073 69.4323 4.21436C71.094 4.92812 72.5337 6.03641 75.413 8.25299C84.9537 15.5977 89.724 19.2701 91.3593 24.0257C92.0867 26.141 92.3585 28.3657 92.1597 30.576C91.7128 35.5452 87.947 40.0931 80.4153 49.1889L62.6665 70.6235C55.8343 78.8745 52.4182 83 47.7784 83C43.1386 83 39.7225 78.8745 32.8903 70.6235L15.1416 49.1889C7.60989 40.0931 3.84404 35.5452 3.39711 30.576C3.19831 28.3657 3.47016 26.141 4.19755 24.0257C5.83284 19.2701 10.6032 15.5977 20.1439 8.25299Z" stroke="#1A1B1B" stroke-width="5.5"/>
<path d="M38.8896 27.4443H56.6674" stroke="#1A1B1B" stroke-width="5.5" stroke-linecap="round" stroke-linejoin="round"/>
</svg>
