<svg width="86" height="86" viewBox="0 0 86 86" fill="none" xmlns="http://www.w3.org/2000/svg">
<path d="M42.9987 50.9999H46.9986C51.3986 50.9999 54.9985 47.3999 54.9985 43V3H18.9989C12.9989 3 7.75904 6.31995 5.03906 11.1999" stroke="#1A1B1B" stroke-width="5.5" stroke-linecap="round" stroke-linejoin="round"/>
<path d="M3 62.9999C3 69.6399 8.35995 74.9999 14.9999 74.9999H18.9998C18.9998 70.5999 22.5998 66.9999 26.9998 66.9999C31.3997 66.9999 34.9997 70.5999 34.9997 74.9999H50.9995C50.9995 70.5999 54.5995 66.9999 58.9994 66.9999C63.3994 66.9999 66.9994 70.5999 66.9994 74.9999H70.9993C77.6393 74.9999 82.9992 69.6399 82.9992 62.9999V51H70.9993C68.7994 51 66.9994 49.2 66.9994 47V35C66.9994 32.8 68.7994 31 70.9993 31H76.1592L69.3194 19.04C67.8794 16.56 65.2395 15 62.3595 15H54.9995V43C54.9995 47.4 51.3995 51 46.9996 51H42.9996" stroke="#1A1B1B" stroke-width="5.5" stroke-linecap="round" stroke-linejoin="round"/>
<path d="M26.9999 83C31.4182 83 34.9998 79.4183 34.9998 75C34.9998 70.5817 31.4182 67 26.9999 67C22.5817 67 19 70.5817 19 75C19 79.4183 22.5817 83 26.9999 83Z" stroke="#1A1B1B" stroke-width="5.5" stroke-linecap="round" stroke-linejoin="round"/>
<path d="M58.9989 83C63.4172 83 66.9989 79.4183 66.9989 75C66.9989 70.5817 63.4172 67 58.9989 67C54.5807 67 50.999 70.5817 50.999 75C50.999 79.4183 54.5807 83 58.9989 83Z" stroke="#1A1B1B" stroke-width="5.5" stroke-linecap="round" stroke-linejoin="round"/>
<path d="M82.9998 43.0002V51.0002H71C68.8 51.0002 67 49.2002 67 47.0002V35.0002C67 32.8002 68.8 31.0002 71 31.0002H76.1598L82.9998 43.0002Z" stroke="#1A1B1B" stroke-width="5.5" stroke-linecap="round" stroke-linejoin="round"/>
<path d="M3 27H26.9998" stroke="#1A1B1B" stroke-width="5.5" stroke-linecap="round" stroke-linejoin="round"/>
<path d="M3 39H18.9998" stroke="#1A1B1B" stroke-width="5.5" stroke-linecap="round" stroke-linejoin="round"/>
<path d="M3 51H10.9999" stroke="#1A1B1B" stroke-width="5.5" stroke-linecap="round" stroke-linejoin="round"/>
</svg>
